<svg xmlns="http://www.w3.org/2000/svg" xmlns:xlink="http://www.w3.org/1999/xlink" zoomAndPan="magnify" preserveAspectRatio="xMidYMid meet" version="1.0" viewBox="471.12 295.12 17.75 9.75"><defs><clipPath id="28e0106be4"><path d="M 471.148438 295.148438 L 488.84375 295.148438 L 488.84375 304.847656 L 471.148438 304.847656 Z M 471.148438 295.148438 " clip-rule="nonzero"/></clipPath></defs><g clip-path="url(#28e0106be4)"><path fill="#000000" d="M 479.996094 304.136719 C 476.195312 304.136719 472.945312 301.304688 472.089844 300.492188 C 472.902344 299.507812 476.167969 295.859375 479.996094 295.859375 C 483.820312 295.859375 487.09375 299.507812 487.90625 300.492188 C 487.050781 301.304688 483.800781 304.136719 479.996094 304.136719 Z M 479.996094 295.148438 C 475.246094 295.148438 471.484375 300.097656 471.328125 300.308594 L 471.148438 300.546875 L 471.355469 300.761719 C 471.511719 300.929688 475.269531 304.847656 479.996094 304.847656 C 484.726562 304.847656 488.484375 300.929688 488.640625 300.761719 L 488.84375 300.546875 L 488.667969 300.308594 C 488.507812 300.097656 484.75 295.148438 479.996094 295.148438 " fill-opacity="1" fill-rule="nonzero"/></g><path fill="#000000" d="M 479.996094 302.980469 C 478.355469 302.980469 477.015625 301.644531 477.015625 300 C 477.015625 298.355469 478.355469 297.015625 479.996094 297.015625 C 481.640625 297.015625 482.980469 298.355469 482.980469 300 C 482.980469 301.644531 481.640625 302.980469 479.996094 302.980469 Z M 479.996094 296.304688 C 477.960938 296.304688 476.304688 297.960938 476.304688 300 C 476.304688 302.035156 477.960938 303.691406 479.996094 303.691406 C 482.035156 303.691406 483.691406 302.035156 483.691406 300 C 483.691406 297.960938 482.035156 296.304688 479.996094 296.304688 " fill-opacity="1" fill-rule="nonzero"/><path fill="#000000" d="M 479.867188 298.945312 C 479.867188 298.738281 479.921875 298.546875 480.015625 298.378906 C 480.011719 298.378906 480.003906 298.378906 479.996094 298.378906 C 479.101562 298.378906 478.375 299.101562 478.375 300 C 478.375 300.894531 479.101562 301.621094 479.996094 301.621094 C 480.894531 301.621094 481.621094 300.894531 481.621094 300 C 481.621094 299.992188 481.617188 299.988281 481.617188 299.980469 C 481.449219 300.074219 481.257812 300.128906 481.050781 300.128906 C 480.398438 300.128906 479.867188 299.597656 479.867188 298.945312 " fill-opacity="1" fill-rule="nonzero"/></svg>