<svg xmlns="http://www.w3.org/2000/svg" xmlns:xlink="http://www.w3.org/1999/xlink" zoomAndPan="magnify" preserveAspectRatio="xMidYMid meet" version="1.0" viewBox="462.27 300 17.73 12.22"><defs><clipPath id="37c99dd1e1"><path d="M 462.292969 300.003906 L 479.988281 300.003906 L 479.988281 312 L 462.292969 312 Z M 462.292969 300.003906 " clip-rule="nonzero"/></clipPath></defs><g clip-path="url(#37c99dd1e1)"><path fill="#000000" d="M 474.964844 309.414062 L 474.011719 308.464844 C 474.546875 307.816406 474.878906 307 474.878906 306.101562 C 474.878906 304.039062 473.203125 302.363281 471.140625 302.363281 C 470.242188 302.363281 469.425781 302.695312 468.777344 303.226562 L 468.152344 302.601562 C 469.082031 302.1875 470.089844 301.910156 471.140625 301.910156 C 475.011719 301.910156 478.324219 305.605469 479.148438 306.597656 C 478.589844 307.128906 477.03125 308.5 474.964844 309.414062 Z M 469.757812 305.222656 C 469.597656 305.476562 469.5 305.777344 469.5 306.097656 C 469.5 307.007812 470.234375 307.742188 471.140625 307.742188 C 471.464844 307.742188 471.761719 307.644531 472.015625 307.484375 L 472.996094 308.464844 C 472.484375 308.867188 471.84375 309.121094 471.140625 309.121094 C 469.476562 309.121094 468.121094 307.765625 468.121094 306.101562 C 468.121094 305.398438 468.375 304.757812 468.777344 304.242188 Z M 472.527344 306.976562 C 472.6875 306.722656 472.785156 306.421875 472.785156 306.097656 C 472.785156 306.09375 472.78125 306.085938 472.78125 306.082031 C 472.609375 306.175781 472.417969 306.234375 472.207031 306.234375 C 471.546875 306.234375 471.007812 305.695312 471.007812 305.03125 C 471.007812 304.824219 471.066406 304.628906 471.160156 304.460938 C 471.152344 304.460938 471.148438 304.457031 471.140625 304.457031 C 470.820312 304.457031 470.519531 304.554688 470.265625 304.714844 L 469.285156 303.734375 C 469.800781 303.332031 470.4375 303.082031 471.140625 303.082031 C 472.808594 303.082031 474.160156 304.433594 474.160156 306.101562 C 474.160156 306.800781 473.910156 307.441406 473.503906 307.957031 Z M 471.140625 310.289062 C 467.289062 310.289062 464 307.421875 463.136719 306.597656 C 463.679688 305.941406 465.3125 304.109375 467.472656 302.9375 L 468.269531 303.734375 C 467.738281 304.382812 467.402344 305.199219 467.402344 306.101562 C 467.402344 308.160156 469.078125 309.835938 471.140625 309.835938 C 472.042969 309.835938 472.859375 309.503906 473.503906 308.972656 L 474.238281 309.707031 C 473.277344 310.054688 472.234375 310.289062 471.140625 310.289062 Z M 479.917969 306.410156 C 479.757812 306.199219 475.953125 301.191406 471.140625 301.191406 C 469.875 301.191406 468.683594 301.542969 467.605469 302.054688 L 465.660156 300.109375 C 465.519531 299.96875 465.292969 299.96875 465.152344 300.109375 C 465.011719 300.25 465.011719 300.476562 465.152344 300.617188 L 466.933594 302.402344 C 464.277344 303.898438 462.472656 306.265625 462.367188 306.410156 C 462.261719 306.550781 462.273438 306.746094 462.390625 306.875 C 462.550781 307.042969 466.355469 311.007812 471.140625 311.007812 C 472.457031 311.007812 473.691406 310.703125 474.800781 310.269531 L 476.625 312.089844 C 476.695312 312.160156 476.785156 312.195312 476.878906 312.195312 C 476.96875 312.195312 477.0625 312.160156 477.132812 312.089844 C 477.273438 311.949219 477.273438 311.722656 477.132812 311.582031 L 475.511719 309.964844 C 478.0625 308.777344 479.785156 306.984375 479.890625 306.875 C 480.011719 306.746094 480.023438 306.550781 479.917969 306.410156 " fill-opacity="1" fill-rule="nonzero"/></g></svg>