<svg xmlns="http://www.w3.org/2000/svg" xmlns:xlink="http://www.w3.org/1999/xlink" zoomAndPan="magnify" preserveAspectRatio="xMidYMid meet" version="1.0" viewBox="309.97 251.87 340.1 63.27"><defs><g/><clipPath id="6e8fa54b36"><path d="M 309.980469 262 L 649.730469 262 L 649.730469 315.121094 L 309.980469 315.121094 Z M 309.980469 262 " clip-rule="nonzero"/></clipPath><clipPath id="725d4a3ead"><path d="M 346 251.550781 L 611 251.550781 L 611 304 L 346 304 Z M 346 251.550781 " clip-rule="nonzero"/></clipPath></defs><g clip-path="url(#6e8fa54b36)"><path fill="#000000" d="M 616.074219 303.976562 C 616.515625 304.015625 618.984375 304.417969 623.476562 305.171875 C 627.832031 305.976562 630.257812 306.527344 630.746094 306.839844 L 630.679688 306.976562 C 627.035156 306.976562 623.8125 306.664062 621.007812 306.039062 C 618.386719 305.460938 616.738281 304.773438 616.074219 303.976562 Z M 620.542969 299.238281 C 621.789062 299.769531 624.390625 300.328125 628.34375 300.90625 C 626.566406 301.925781 624.65625 302.0625 622.613281 301.308594 C 620.917969 300.640625 620.074219 300.035156 620.074219 299.503906 C 620.074219 298.925781 620.230469 298.835938 620.542969 299.238281 Z M 609.835938 292.066406 C 609.855469 291.910156 609.878906 291.753906 609.902344 291.597656 C 612.410156 292.527344 615.332031 293.585938 618.671875 294.765625 L 617.40625 294.96875 C 614.59375 293.902344 612.066406 292.9375 609.835938 292.066406 Z M 608.570312 295.734375 C 609.4375 296.117188 610.300781 296.480469 611.136719 296.835938 C 610.152344 296.738281 609.171875 296.582031 608.203125 296.367188 C 608.246094 296.308594 608.292969 296.242188 608.335938 296.167969 L 608.335938 296.101562 C 608.417969 295.980469 608.496094 295.855469 608.570312 295.734375 Z M 610.207031 285.398438 C 613.6875 286.210938 619.0625 287.445312 626.34375 289.097656 C 620.421875 288.566406 615.066406 287.710938 610.273438 286.527344 L 610.273438 286.496094 C 610.273438 286.363281 610.273438 286.230469 610.273438 286.097656 C 610.242188 285.855469 610.222656 285.621094 610.207031 285.398438 Z M 609.703125 280.925781 C 612.5 281.457031 616.78125 282.382812 622.542969 283.695312 C 619.390625 283.621094 615.144531 282.992188 609.804688 281.796875 C 609.765625 281.5 609.734375 281.214844 609.703125 280.925781 Z M 609.167969 274.894531 L 610.539062 275.160156 L 609.203125 275.425781 C 609.1875 275.238281 609.179688 275.058594 609.167969 274.894531 Z M 602.9375 299.90625 C 605.628906 301.234375 608.71875 302.363281 612.207031 303.308594 L 611.273438 303.574219 C 609.589844 303.140625 606.535156 301.996094 602.101562 300.140625 C 602.390625 300.070312 602.664062 299.992188 602.9375 299.90625 Z M 622.210938 276.558594 C 622.035156 276.914062 621.722656 277.207031 621.277344 277.425781 C 619.542969 277.296875 618.453125 277.179688 618.007812 277.09375 C 617.121094 276.960938 616.316406 276.667969 615.609375 276.226562 C 615.875 275.960938 616.363281 275.824219 617.074219 275.824219 C 617.609375 275.824219 619.320312 276.070312 622.210938 276.558594 Z M 609.402344 277.960938 C 609.382812 277.71875 609.359375 277.484375 609.335938 277.257812 C 610.199219 277.441406 611.089844 277.628906 612.003906 277.828125 L 622.410156 280.359375 C 622.496094 280.449219 622.632812 280.515625 622.808594 280.5625 C 619.296875 280.027344 615.339844 279.269531 610.941406 278.296875 C 610.417969 278.179688 609.910156 278.070312 609.402344 277.960938 Z M 609.46875 269.324219 C 611.949219 269.699219 614.484375 270.15625 617.074219 270.6875 C 623.613281 272.109375 629.078125 273.734375 633.480469 275.558594 C 632.816406 275.960938 630.4375 275.628906 626.34375 274.558594 C 620.476562 273.089844 617.472656 272.335938 617.339844 272.292969 C 615.90625 272.058594 613.210938 271.6875 609.273438 271.1875 C 609.34375 270.515625 609.414062 269.890625 609.46875 269.324219 Z M 336.535156 305.242188 C 341.074219 304.527344 343.539062 304.152344 343.941406 304.105469 C 343.273438 304.859375 341.628906 305.527344 339.007812 306.105469 C 336.203125 306.773438 332.984375 307.105469 329.335938 307.105469 L 329.265625 306.910156 C 329.757812 306.597656 332.179688 306.039062 336.535156 305.242188 Z M 339.9375 299.640625 C 339.9375 300.125 339.09375 300.703125 337.40625 301.371094 C 335.359375 302.171875 333.445312 302.035156 331.667969 300.972656 C 335.625 300.394531 338.230469 299.835938 339.476562 299.304688 C 339.78125 298.90625 339.9375 299.015625 339.9375 299.640625 Z M 338.742188 277.492188 C 338.292969 277.269531 337.984375 276.984375 337.808594 276.628906 C 340.695312 276.179688 342.410156 275.960938 342.941406 275.960938 C 343.65625 275.960938 344.144531 276.070312 344.410156 276.292969 C 343.695312 276.738281 342.898438 277.050781 342.007812 277.226562 C 341.566406 277.269531 340.476562 277.359375 338.742188 277.492188 Z M 347.042969 278.191406 L 347.011719 278.492188 C 347.003906 278.609375 346.988281 278.71875 346.980469 278.828125 C 343.410156 279.617188 340.152344 280.21875 337.203125 280.628906 C 337.378906 280.582031 337.515625 280.542969 337.605469 280.496094 Z M 346.511719 286.261719 C 346.488281 286.648438 346.46875 287.019531 346.441406 287.363281 C 342.527344 288.171875 338.273438 288.796875 333.671875 289.234375 C 338.953125 288.019531 343.230469 287.027344 346.511719 286.261719 Z M 346.8125 281.730469 C 346.785156 282.035156 346.761719 282.339844 346.746094 282.632812 C 342.996094 283.355469 339.90625 283.734375 337.472656 283.761719 C 341.207031 282.933594 344.316406 282.253906 346.8125 281.730469 Z M 346.207031 293.734375 C 345.0625 294.171875 343.863281 294.625 342.605469 295.101562 L 341.410156 294.835938 C 343.121094 294.226562 344.722656 293.648438 346.207031 293.097656 C 346.207031 293.277344 346.207031 293.429688 346.207031 293.570312 Z M 350.578125 302.605469 C 350.746094 302.707031 350.914062 302.808594 351.078125 302.90625 C 350.125 303.238281 349.351562 303.484375 348.746094 303.640625 L 347.8125 303.371094 C 348.765625 303.125 349.6875 302.871094 350.578125 302.605469 Z M 359.015625 303.738281 C 357.253906 304.289062 354.878906 304.742188 351.878906 305.105469 L 351.078125 304.773438 C 352.832031 304.496094 354.421875 304.152344 355.847656 303.738281 C 356.726562 303.75 357.785156 303.75 359.015625 303.738281 Z M 347.609375 269.921875 L 347.480469 271.6875 C 345.273438 271.996094 343.675781 272.242188 342.675781 272.421875 C 342.539062 272.421875 339.539062 273.179688 333.671875 274.691406 C 329.621094 275.714844 327.246094 276.050781 326.53125 275.691406 C 330.933594 273.824219 336.425781 272.203125 343.007812 270.824219 C 344.5625 270.488281 346.09375 270.1875 347.609375 269.921875 Z M 347.707031 266.421875 C 325.324219 270.292969 314.128906 272.558594 314.128906 273.226562 C 314.128906 274.203125 316.464844 277.382812 321.132812 282.761719 C 324.777344 286.898438 327.667969 290.03125 329.804688 292.167969 C 326.375 296.789062 322.710938 301.238281 318.796875 305.507812 C 315.191406 309.375 313.394531 311.085938 313.394531 310.644531 C 313.394531 312.332031 319.378906 312.3125 331.335938 310.578125 C 343.875 308.488281 350.699219 307.441406 351.816406 307.441406 C 357.058594 306.996094 360.507812 305.90625 362.152344 304.171875 L 362.351562 304.242188 C 362.664062 304.152344 362.882812 304.015625 363.019531 303.839844 L 362.949219 303.703125 C 364.003906 303.691406 365.140625 303.683594 366.351562 303.671875 C 366.351562 303.71875 366.351562 303.777344 366.351562 303.839844 C 366.351562 304.730469 366.019531 305.484375 365.351562 306.105469 C 365.039062 306.554688 364.574219 306.910156 363.949219 307.175781 C 361.773438 309.085938 357.816406 310.242188 352.082031 310.644531 C 352.035156 310.644531 351.964844 310.644531 351.878906 310.644531 C 350.8125 310.734375 344.144531 311.773438 331.867188 313.777344 L 331.804688 313.777344 C 325.621094 314.710938 320.976562 315.15625 317.859375 315.109375 C 315.996094 315.15625 314.550781 315.023438 313.523438 314.710938 C 310.816406 313.953125 309.660156 312.597656 310.058594 310.644531 C 310.058594 309.707031 310.371094 308.910156 310.992188 308.242188 C 311.394531 307.929688 311.816406 307.664062 312.257812 307.441406 C 312.304688 307.441406 312.375 307.398438 312.460938 307.308594 C 313.304688 306.507812 314.574219 305.171875 316.261719 303.308594 C 319.554688 299.789062 322.597656 296.191406 325.402344 292.5 C 323.578125 290.5 321.308594 287.988281 318.59375 284.964844 C 313.039062 278.5625 310.433594 274.648438 310.792969 273.226562 C 310.457031 270.875 322.609375 267.515625 347.246094 263.152344 C 347.300781 263.605469 347.378906 264.144531 347.480469 264.753906 C 347.582031 265.441406 347.660156 265.996094 347.707031 266.421875 Z M 609.804688 265.917969 C 609.847656 265.269531 609.871094 264.835938 609.871094 264.621094 C 609.871094 263.832031 609.863281 263.121094 609.835938 262.484375 C 636.488281 267.113281 649.613281 270.671875 649.222656 273.15625 C 649.578125 274.539062 646.976562 278.445312 641.417969 284.898438 C 638.707031 287.878906 636.441406 290.363281 634.617188 292.363281 C 637.417969 296.101562 640.464844 299.726562 643.753906 303.238281 C 645.445312 305.0625 646.710938 306.371094 647.558594 307.175781 C 647.644531 307.261719 647.714844 307.332031 647.753906 307.371094 C 648.199219 307.554688 648.625 307.820312 649.019531 308.175781 C 649.644531 308.792969 649.957031 309.578125 649.957031 310.507812 C 650.355469 312.511719 649.199219 313.890625 646.488281 314.648438 C 645.46875 314.953125 644.019531 315.070312 642.152344 314.980469 C 639.042969 315.070312 634.394531 314.621094 628.214844 313.644531 C 615.894531 311.6875 609.203125 310.664062 608.136719 310.578125 C 608.046875 310.578125 607.980469 310.578125 607.9375 310.578125 C 602.203125 310.132812 598.265625 308.976562 596.128906 307.105469 C 595.464844 306.792969 594.972656 306.4375 594.660156 306.039062 C 593.996094 305.417969 593.660156 304.640625 593.660156 303.703125 C 593.660156 303.527344 593.6875 303.328125 593.730469 303.105469 C 593.578125 302.503906 593.46875 301.785156 593.394531 300.9375 C 595.03125 300.90625 596.40625 300.863281 597.53125 300.804688 C 598.152344 301.132812 598.820312 301.503906 599.535156 301.90625 C 601.890625 303.105469 605.027344 304.015625 608.9375 304.640625 L 608.203125 304.976562 C 603.398438 304.4375 600.175781 303.660156 598.53125 302.640625 C 597.996094 302.152344 597.421875 301.660156 596.796875 301.171875 C 596.886719 302.191406 597.089844 302.949219 597.398438 303.4375 C 597.355469 303.4375 597.289062 303.4375 597.199219 303.4375 L 596.996094 303.703125 C 597.132812 303.886719 597.375 304.039062 597.730469 304.171875 L 597.867188 304.105469 C 599.554688 305.839844 603 306.910156 608.203125 307.308594 C 609.3125 307.351562 616.140625 308.398438 628.679688 310.441406 C 640.640625 312.175781 646.625 312.199219 646.625 310.507812 C 646.625 311 644.84375 309.3125 641.289062 305.4375 C 637.328125 301.171875 633.636719 296.726562 630.214844 292.097656 C 632.347656 289.921875 635.238281 286.761719 638.886719 282.632812 C 643.554688 277.25 645.890625 274.089844 645.890625 273.15625 C 645.890625 272.464844 633.855469 270.050781 609.804688 265.917969 " fill-opacity="1" fill-rule="evenodd"/></g><path fill="#f0daae" d="M 616.074219 303.976562 C 616.738281 304.773438 618.386719 305.460938 621.007812 306.039062 C 623.8125 306.664062 627.035156 306.976562 630.679688 306.976562 L 630.746094 306.839844 C 630.257812 306.527344 627.832031 305.976562 623.476562 305.171875 C 618.984375 304.417969 616.515625 304.015625 616.074219 303.976562 Z M 620.542969 299.238281 C 620.230469 298.835938 620.074219 298.925781 620.074219 299.503906 C 620.074219 300.035156 620.917969 300.640625 622.613281 301.308594 C 624.65625 302.0625 626.566406 301.925781 628.34375 300.90625 C 624.390625 300.328125 621.789062 299.769531 620.542969 299.238281 Z M 532.765625 295.902344 C 534.632812 295.765625 538.503906 295.855469 544.371094 296.167969 C 550.066406 296.570312 555.246094 296.550781 559.914062 296.101562 L 559.914062 296.035156 C 550 295.277344 540.59375 295.078125 531.699219 295.433594 Z M 566.183594 295.570312 L 567.253906 296.101562 L 595.730469 295.972656 C 595.597656 295.746094 595.089844 295.433594 594.199219 295.03125 C 594.042969 295.042969 593.777344 295.054688 593.394531 295.070312 C 591.648438 295.085938 587.46875 295.070312 580.859375 295.03125 C 573.472656 294.992188 568.585938 295.167969 566.183594 295.570312 Z M 587.527344 263.085938 C 590.371094 263.21875 592.109375 263.261719 592.726562 263.21875 C 592.148438 262.90625 590.304688 262.683594 587.195312 262.554688 C 584.082031 262.375 582.144531 262.417969 581.390625 262.683594 L 582.390625 263.152344 C 583.144531 262.976562 584.859375 262.953125 587.527344 263.085938 Z M 590.527344 259.621094 C 589.503906 259.261719 588.195312 259.105469 586.59375 259.152344 C 585.082031 259.152344 584.324219 259.261719 584.324219 259.484375 C 584.324219 259.925781 584.4375 260.128906 584.65625 260.082031 C 584.75 260.128906 584.859375 260.082031 584.988281 259.953125 C 588.597656 259.953125 590.480469 259.925781 590.660156 259.886719 Z M 589.792969 268.085938 C 590.683594 267.867188 589.972656 267.625 587.65625 267.351562 C 585.65625 267.222656 585.082031 267.46875 585.929688 268.085938 C 586.773438 268.222656 587.726562 268.3125 588.792969 268.351562 C 590.085938 268.535156 590.417969 268.441406 589.792969 268.085938 Z M 592.265625 267.625 C 592.265625 267.800781 592.550781 267.976562 593.128906 268.15625 C 593.707031 268.332031 594.089844 268.351562 594.265625 268.222656 C 594.265625 268.085938 593.953125 267.957031 593.328125 267.820312 C 592.707031 267.6875 592.351562 267.625 592.265625 267.625 Z M 595.394531 275.292969 C 595.355469 275.246094 595.328125 275.316406 595.328125 275.492188 C 595.777344 275.691406 596.128906 275.835938 596.398438 275.925781 C 596.6875 276.011719 596.886719 276.050781 596.996094 276.023438 C 596.929688 275.902344 596.734375 275.785156 596.433594 275.660156 C 596.171875 275.539062 595.828125 275.414062 595.394531 275.292969 Z M 593.328125 286.429688 C 593.5 286.398438 593.921875 286.398438 594.597656 286.429688 C 594.8125 286.457031 595.058594 286.476562 595.328125 286.496094 C 595.25 286.386719 595.027344 286.242188 594.660156 286.066406 C 594.433594 285.960938 594.144531 285.835938 593.796875 285.695312 C 593.484375 285.519531 593.171875 285.410156 592.863281 285.363281 C 592.195312 285.144531 591.863281 285.273438 591.863281 285.761719 C 591.863281 286.210938 592.128906 286.449219 592.660156 286.496094 C 592.882812 286.542969 593.109375 286.519531 593.328125 286.429688 Z M 591.394531 275.558594 C 591.484375 275.558594 591.570312 275.511719 591.660156 275.425781 C 591.882812 275.246094 592.640625 275.292969 593.933594 275.558594 L 591.796875 274.425781 C 591.265625 274.246094 590.992188 274.382812 590.992188 274.824219 C 590.992188 275.316406 591.128906 275.558594 591.394531 275.558594 Z M 582.65625 274.492188 L 583.261719 274.824219 C 583.792969 274.738281 584.683594 274.691406 585.929688 274.691406 C 585.882812 274.472656 585.480469 274.246094 584.722656 274.023438 C 584.59375 274.070312 583.902344 274.226562 582.65625 274.492188 Z M 583.457031 280.5625 L 584.527344 280.964844 C 584.878906 280.691406 587.195312 280.808594 591.460938 281.296875 C 590.394531 280.808594 589.167969 280.472656 587.792969 280.296875 C 586.195312 280.074219 584.75 280.160156 583.457031 280.5625 Z M 588.058594 286.429688 C 588.015625 286.300781 587.773438 286.097656 587.324219 285.832031 C 587.28125 285.878906 587.167969 285.917969 586.992188 285.964844 C 586.058594 286.054688 585.4375 286.183594 585.125 286.363281 C 586.417969 286.496094 587.390625 286.519531 588.058594 286.429688 Z M 591.863281 280.828125 C 591.863281 281.269531 591.972656 281.496094 592.195312 281.496094 C 592.285156 281.496094 592.394531 281.472656 592.53125 281.425781 C 592.753906 281.296875 593.21875 281.25 593.933594 281.296875 C 593.886719 281.027344 593.550781 280.78125 592.929688 280.5625 C 592.796875 280.472656 592.617188 280.386719 592.394531 280.296875 C 592.039062 280.207031 591.863281 280.386719 591.863281 280.828125 Z M 587.195312 291.433594 C 587.105469 291.253906 586.65625 291.121094 585.859375 291.03125 C 585.015625 290.988281 584.5 291.121094 584.324219 291.433594 L 584.988281 291.636719 C 585.035156 291.589844 585.417969 291.609375 586.125 291.699219 C 586.835938 291.699219 587.195312 291.609375 587.195312 291.433594 Z M 622.210938 276.558594 C 619.320312 276.070312 617.609375 275.824219 617.074219 275.824219 C 616.363281 275.824219 615.875 275.960938 615.609375 276.226562 C 616.316406 276.667969 617.121094 276.960938 618.007812 277.09375 C 618.453125 277.179688 619.542969 277.296875 621.277344 277.425781 C 621.722656 277.207031 622.035156 276.914062 622.210938 276.558594 Z M 602.101562 300.140625 C 606.535156 301.996094 609.589844 303.140625 611.273438 303.574219 L 612.207031 303.308594 C 608.71875 302.363281 605.628906 301.234375 602.9375 299.90625 C 605.390625 299.140625 607.148438 297.960938 608.203125 296.367188 C 609.171875 296.582031 610.152344 296.738281 611.136719 296.835938 C 610.300781 296.480469 609.4375 296.117188 608.570312 295.734375 C 609.121094 294.765625 609.542969 293.542969 609.835938 292.066406 C 612.066406 292.9375 614.59375 293.902344 617.40625 294.96875 L 618.671875 294.765625 C 615.332031 293.585938 612.410156 292.527344 609.902344 291.597656 C 610.148438 290.140625 610.269531 288.453125 610.273438 286.527344 C 615.066406 287.710938 620.421875 288.566406 626.34375 289.097656 C 619.0625 287.445312 613.6875 286.210938 610.207031 285.398438 C 610.058594 284.101562 609.925781 282.898438 609.804688 281.796875 C 615.144531 282.992188 619.390625 283.621094 622.542969 283.695312 C 616.78125 282.382812 612.5 281.457031 609.703125 280.925781 C 609.59375 279.832031 609.496094 278.84375 609.402344 277.960938 C 609.910156 278.070312 610.417969 278.179688 610.941406 278.296875 C 615.339844 279.269531 619.296875 280.027344 622.808594 280.5625 C 622.632812 280.515625 622.496094 280.449219 622.410156 280.359375 L 612.003906 277.828125 C 611.089844 277.628906 610.199219 277.441406 609.335938 277.257812 C 609.289062 276.570312 609.246094 275.960938 609.203125 275.425781 L 610.539062 275.160156 L 609.167969 274.894531 C 609.105469 274.089844 609.070312 273.492188 609.070312 273.089844 C 609.140625 272.414062 609.210938 271.78125 609.273438 271.1875 C 613.210938 271.6875 615.90625 272.058594 617.339844 272.292969 C 617.472656 272.335938 620.476562 273.089844 626.34375 274.558594 C 630.4375 275.628906 632.816406 275.960938 633.480469 275.558594 C 629.078125 273.734375 623.613281 272.109375 617.074219 270.6875 C 614.484375 270.15625 611.949219 269.699219 609.46875 269.324219 C 609.617188 267.851562 609.730469 266.722656 609.804688 265.917969 C 633.855469 270.050781 645.890625 272.464844 645.890625 273.15625 C 645.890625 274.089844 643.554688 277.25 638.886719 282.632812 C 635.238281 286.761719 632.347656 289.921875 630.214844 292.097656 C 633.636719 296.726562 637.328125 301.171875 641.289062 305.4375 C 644.84375 309.3125 646.625 311 646.625 310.507812 C 646.625 312.199219 640.640625 312.175781 628.679688 310.441406 C 616.140625 308.398438 609.3125 307.351562 608.203125 307.308594 C 603 306.910156 599.554688 305.839844 597.867188 304.105469 L 597.730469 304.171875 C 597.375 304.039062 597.132812 303.886719 596.996094 303.703125 L 597.199219 303.4375 C 597.289062 303.4375 597.355469 303.4375 597.398438 303.4375 C 597.089844 302.949219 596.886719 302.191406 596.796875 301.171875 C 597.421875 301.660156 597.996094 302.152344 598.53125 302.640625 C 600.175781 303.660156 603.398438 304.4375 608.203125 304.976562 L 608.9375 304.640625 C 605.027344 304.015625 601.890625 303.105469 599.535156 301.90625 C 598.820312 301.503906 598.152344 301.132812 597.53125 300.804688 C 598.90625 300.726562 599.910156 300.625 600.535156 300.503906 C 601.082031 300.40625 601.601562 300.28125 602.101562 300.140625 Z M 336.535156 305.242188 C 332.179688 306.039062 329.757812 306.597656 329.265625 306.910156 L 329.335938 307.105469 C 332.984375 307.105469 336.203125 306.773438 339.007812 306.105469 C 341.628906 305.527344 343.273438 304.859375 343.941406 304.105469 C 343.539062 304.152344 341.074219 304.527344 336.535156 305.242188 Z M 365.753906 289.96875 L 368.355469 290.832031 L 366.019531 289.765625 L 366.019531 289.832031 C 365.984375 289.882812 365.894531 289.929688 365.753906 289.96875 Z M 369.21875 298.167969 L 369.824219 298.433594 C 372.042969 298.304688 376.734375 297.789062 383.894531 296.902344 C 381.761719 296.414062 379.378906 296.414062 376.757812 296.902344 C 371.777344 297.699219 369.265625 298.121094 369.21875 298.167969 Z M 384.960938 296.699219 C 384.519531 296.746094 384.292969 296.816406 384.292969 296.902344 L 385.429688 297.367188 L 386.832031 297.304688 L 385.761719 296.636719 Z M 402.371094 296.972656 C 402.324219 296.882812 402.125 296.769531 401.769531 296.636719 C 401.636719 296.503906 401.480469 296.394531 401.300781 296.304688 C 401.300781 296.347656 401.078125 296.277344 400.636719 296.101562 C 400.105469 295.925781 399.835938 296.058594 399.835938 296.503906 C 399.835938 297.214844 400.191406 297.394531 400.902344 297.035156 Z M 394.296875 296.699219 C 392.257812 296.699219 391.167969 296.746094 391.03125 296.835938 C 391.609375 297.148438 392.257812 297.414062 392.964844 297.636719 C 393.5 297.816406 394.5 297.769531 395.964844 297.503906 C 397.347656 297.277344 398.191406 297.058594 398.503906 296.835938 C 397.65625 296.746094 396.257812 296.699219 394.296875 296.699219 Z M 409.570312 296.304688 L 410.972656 296.835938 C 411.238281 296.699219 411.996094 296.613281 413.238281 296.570312 C 414.484375 296.480469 415.308594 296.367188 415.710938 296.238281 C 415.132812 296.101562 413.996094 296.082031 412.308594 296.167969 C 410.796875 296.214844 409.882812 296.257812 409.570312 296.304688 Z M 405.234375 296.699219 C 405.195312 296.523438 404.949219 296.433594 404.507812 296.433594 C 404.015625 296.394531 403.726562 296.414062 403.636719 296.503906 L 404.773438 296.902344 Z M 363.550781 296.433594 C 363.480469 296.449219 363.414062 296.460938 363.351562 296.472656 C 358.433594 297.425781 354.894531 297.972656 352.746094 298.101562 C 355.503906 298.367188 357.90625 298.324219 359.949219 297.972656 C 360.558594 297.847656 361.105469 297.730469 361.585938 297.636719 C 363.527344 297.246094 364.519531 297.066406 364.550781 297.101562 Z M 360.28125 290.164062 C 359.929688 289.988281 359.238281 289.921875 358.214844 289.96875 C 357.058594 290.007812 356.484375 290.144531 356.484375 290.363281 C 356.484375 291.078125 356.722656 291.234375 357.214844 290.832031 C 358.722656 290.566406 359.75 290.34375 360.28125 290.164062 Z M 339.9375 299.640625 C 339.9375 299.015625 339.78125 298.90625 339.476562 299.304688 C 338.230469 299.835938 335.625 300.394531 331.667969 300.972656 C 333.445312 302.035156 335.359375 302.171875 337.40625 301.371094 C 339.09375 300.703125 339.9375 300.125 339.9375 299.640625 Z M 338.742188 277.492188 C 340.476562 277.359375 341.566406 277.269531 342.007812 277.226562 C 342.898438 277.050781 343.695312 276.738281 344.410156 276.292969 C 344.144531 276.070312 343.65625 275.960938 342.941406 275.960938 C 342.410156 275.960938 340.695312 276.179688 337.808594 276.628906 C 337.984375 276.984375 338.292969 277.269531 338.742188 277.492188 Z M 359.015625 262.484375 L 359.28125 262.820312 C 360.75 262.507812 362.085938 262.484375 363.285156 262.75 C 361.417969 261.59375 359.996094 261.507812 359.015625 262.484375 Z M 362.152344 267.253906 C 362.429688 267.242188 362.738281 267.234375 363.085938 267.222656 C 364.417969 267.222656 365.195312 267.132812 365.421875 266.957031 C 365.332031 266.867188 365.128906 266.734375 364.820312 266.554688 C 364.683594 266.507812 364.527344 266.46875 364.351562 266.421875 C 364.214844 266.421875 363.417969 266.46875 361.949219 266.554688 C 361.90625 266.554688 361.859375 266.554688 361.820312 266.554688 C 360.574219 266.5625 359.949219 266.648438 359.949219 266.820312 C 359.949219 267.535156 360.152344 267.6875 360.546875 267.289062 C 360.6875 267.289062 361.21875 267.273438 362.152344 267.253906 Z M 361.617188 273.625 L 362.214844 273.960938 L 364.550781 273.757812 C 364.507812 273.625 364.332031 273.46875 364.019531 273.292969 C 363.839844 273.203125 363.683594 273.136719 363.550781 273.089844 C 363.550781 273.296875 363.496094 273.445312 363.382812 273.523438 C 363.289062 273.609375 363.144531 273.648438 362.949219 273.625 C 362.332031 273.539062 361.882812 273.539062 361.617188 273.625 Z M 357.546875 274.089844 C 357.738281 274.085938 357.933594 274.074219 358.113281 274.058594 C 358.984375 274.023438 359.652344 273.945312 360.117188 273.824219 C 360.359375 273.773438 360.554688 273.703125 360.683594 273.625 C 360.277344 273.464844 359.640625 273.375 358.78125 273.355469 C 358.433594 273.34375 358.046875 273.34375 357.613281 273.355469 C 355.96875 273.355469 355.054688 273.578125 354.878906 274.023438 C 354.941406 274.054688 355.035156 274.074219 355.148438 274.089844 C 355.578125 274.164062 356.375 274.164062 357.546875 274.089844 Z M 352.347656 284.296875 C 353.074219 284.359375 353.691406 284.402344 354.179688 284.429688 C 355.09375 284.5 355.59375 284.527344 355.679688 284.496094 C 355.457031 284.390625 355.242188 284.289062 355.046875 284.195312 C 354.566406 283.984375 354.152344 283.820312 353.816406 283.695312 C 353.457031 283.605469 352.964844 283.476562 352.347656 283.296875 Z M 360.820312 284.496094 C 361.117188 284.484375 361.40625 284.476562 361.683594 284.464844 C 362.433594 284.4375 363.101562 284.429688 363.683594 284.429688 C 363.683594 284.339844 363.441406 284.210938 362.949219 284.027344 C 362.726562 283.898438 362.488281 283.761719 362.214844 283.632812 C 362.070312 283.652344 361.835938 283.664062 361.515625 283.664062 C 361.183594 283.664062 360.75 283.652344 360.214844 283.632812 C 359.238281 283.761719 358.417969 284.007812 357.75 284.359375 L 358.484375 284.695312 C 358.703125 284.605469 359.484375 284.542969 360.820312 284.496094 Z M 347.609375 269.921875 C 346.09375 270.1875 344.5625 270.488281 343.007812 270.824219 C 336.425781 272.203125 330.933594 273.824219 326.53125 275.691406 C 327.246094 276.050781 329.621094 275.714844 333.671875 274.691406 C 339.539062 273.179688 342.539062 272.421875 342.675781 272.421875 C 343.675781 272.242188 345.273438 271.996094 347.480469 271.6875 L 347.042969 278.191406 L 337.605469 280.496094 C 337.515625 280.542969 337.378906 280.582031 337.203125 280.628906 C 340.152344 280.21875 343.410156 279.617188 346.980469 278.828125 C 346.917969 279.847656 346.863281 280.816406 346.8125 281.730469 C 344.316406 282.253906 341.207031 282.933594 337.472656 283.761719 C 339.90625 283.734375 342.996094 283.355469 346.746094 282.632812 C 346.660156 283.949219 346.582031 285.164062 346.511719 286.261719 C 343.230469 287.027344 338.953125 288.019531 333.671875 289.234375 C 338.273438 288.796875 342.527344 288.171875 346.441406 287.363281 C 346.308594 290.03125 346.230469 291.941406 346.207031 293.097656 C 344.722656 293.648438 343.121094 294.226562 341.410156 294.835938 L 342.605469 295.101562 C 343.863281 294.625 345.0625 294.171875 346.207031 293.734375 C 346.234375 294.101562 346.363281 295.070312 346.609375 296.636719 C 346.609375 296.855469 346.65625 297.101562 346.746094 297.367188 C 347.5 299.707031 348.777344 301.453125 350.578125 302.605469 C 349.6875 302.871094 348.765625 303.125 347.8125 303.371094 L 348.746094 303.640625 C 349.351562 303.484375 350.125 303.238281 351.078125 302.90625 C 351.585938 303.160156 352.117188 303.386719 352.679688 303.574219 C 352.917969 303.671875 353.976562 303.730469 355.847656 303.738281 C 354.421875 304.152344 352.832031 304.496094 351.078125 304.773438 L 351.878906 305.105469 C 354.878906 304.742188 357.253906 304.289062 359.015625 303.738281 C 360.171875 303.738281 361.484375 303.730469 362.949219 303.703125 L 363.019531 303.839844 C 362.882812 304.015625 362.664062 304.152344 362.351562 304.242188 L 362.152344 304.171875 C 360.507812 305.90625 357.058594 306.996094 351.816406 307.441406 C 350.699219 307.441406 343.875 308.488281 331.335938 310.578125 C 319.378906 312.3125 313.394531 312.332031 313.394531 310.644531 C 313.394531 311.085938 315.191406 309.375 318.796875 305.507812 C 322.710938 301.238281 326.375 296.789062 329.804688 292.167969 C 327.667969 290.03125 324.777344 286.898438 321.132812 282.761719 C 316.464844 277.382812 314.128906 274.203125 314.128906 273.226562 C 314.128906 272.558594 325.324219 270.292969 347.707031 266.421875 C 347.761719 266.703125 347.792969 266.925781 347.8125 267.085938 Z M 417.710938 296.835938 L 420.847656 296.902344 C 420.800781 296.769531 420.625 296.613281 420.3125 296.433594 C 420.179688 296.304688 420.023438 296.214844 419.847656 296.167969 C 419.753906 296.214844 419.242188 296.121094 418.308594 295.902344 C 417.511719 295.765625 417.113281 295.925781 417.113281 296.367188 C 417.113281 297.082031 417.308594 297.238281 417.710938 296.835938 Z M 444.058594 296.433594 L 443.921875 296.167969 C 442.144531 295.902344 439.945312 295.882812 437.320312 296.101562 C 436.5625 296.148438 434.1875 296.347656 430.1875 296.699219 C 432.582031 296.835938 435.230469 296.882812 438.121094 296.835938 C 440.832031 296.746094 442.8125 296.613281 444.058594 296.433594 Z M 450.257812 296.769531 C 451.59375 296.679688 452.4375 296.613281 452.796875 296.570312 C 452.75 296.480469 452.570312 296.367188 452.257812 296.238281 C 452.082031 296.148438 451.925781 296.082031 451.796875 296.035156 C 451.660156 296.035156 450.617188 295.972656 448.660156 295.835938 C 446.746094 295.835938 445.480469 295.992188 444.859375 296.304688 C 446.859375 296.699219 448.660156 296.855469 450.257812 296.769531 Z M 463.800781 296.238281 C 464.421875 296.457031 464.777344 296.347656 464.871094 295.902344 C 464.507812 295.816406 464.15625 295.925781 463.800781 296.238281 Z M 467.539062 296.035156 L 468.601562 296.503906 L 469.601562 296.304688 L 469.539062 296.101562 C 469.265625 296.011719 468.914062 295.972656 468.46875 295.972656 C 467.980469 295.972656 467.667969 295.992188 467.539062 296.035156 Z M 472.207031 296.304688 C 476.339844 296.613281 480.40625 296.660156 484.410156 296.433594 C 486.765625 296.304688 490.304688 296.035156 495.015625 295.636719 C 487.8125 295.367188 480.210938 295.589844 472.207031 296.304688 Z M 525.496094 296.636719 C 512.464844 296.679688 499.261719 297.082031 485.878906 297.835938 C 472.804688 298.550781 459.644531 298.945312 446.390625 299.035156 C 432.25 298.992188 421.378906 299.015625 413.777344 299.101562 C 410.84375 299.101562 398.925781 299.414062 378.023438 300.035156 C 373.675781 300.179688 369.886719 300.289062 366.65625 300.367188 C 365.453125 300.410156 364.332031 300.445312 363.285156 300.472656 C 360.742188 300.535156 358.644531 300.578125 357.015625 300.601562 C 356.585938 300.609375 356.1875 300.609375 355.816406 300.601562 C 353.941406 300.609375 352.898438 300.578125 352.679688 300.503906 C 351.121094 300.015625 350.078125 298.90625 349.542969 297.167969 C 349.53125 297.074219 349.523438 296.988281 349.511719 296.902344 C 349.507812 296.847656 349.492188 296.789062 349.480469 296.738281 C 349.296875 295.328125 349.210938 294.609375 349.210938 294.570312 C 349.210938 294.09375 349.21875 293.429688 349.246094 292.566406 C 349.246094 292.386719 349.246094 292.199219 349.246094 292 C 349.257812 291.71875 349.273438 291.417969 349.277344 291.097656 C 349.367188 291.097656 349.453125 291.097656 349.542969 291.097656 C 350.554688 291.042969 351.421875 290.988281 352.148438 290.933594 C 352.867188 290.875 353.445312 290.824219 353.878906 290.765625 C 354.347656 290.699219 354.632812 290.628906 354.75 290.566406 C 354.660156 290.589844 354.472656 290.613281 354.179688 290.636719 C 353.855469 290.644531 353.414062 290.65625 352.847656 290.667969 C 352.027344 290.6875 350.949219 290.699219 349.609375 290.699219 C 349.523438 290.746094 349.453125 290.765625 349.414062 290.765625 C 349.367188 290.855469 349.324219 290.921875 349.277344 290.96875 C 349.339844 289.785156 349.429688 288.363281 349.542969 286.695312 C 349.574219 286.320312 349.609375 285.929688 349.648438 285.527344 C 349.671875 285.089844 349.710938 284.632812 349.746094 284.164062 C 350.1875 284.117188 350.480469 284.074219 350.609375 284.027344 C 350.480469 283.984375 350.1875 283.964844 349.746094 283.964844 C 349.789062 283.339844 349.835938 282.683594 349.875 281.996094 C 349.902344 281.703125 349.921875 281.40625 349.945312 281.09375 C 349.960938 280.636719 349.984375 280.167969 350.011719 279.691406 L 350.078125 279.296875 C 351.632812 279.160156 353.570312 279.050781 355.878906 278.960938 C 356.707031 278.9375 357.5 278.914062 358.25 278.894531 C 360.496094 278.820312 362.417969 278.753906 364.019531 278.691406 C 365.925781 278.597656 367.367188 278.507812 368.355469 278.425781 L 366.882812 277.691406 C 366.0625 277.722656 365.0625 277.742188 363.882812 277.757812 C 362.878906 277.78125 361.742188 277.789062 360.484375 277.796875 C 358.832031 277.789062 356.96875 277.773438 354.878906 277.757812 C 353.011719 277.847656 351.433594 277.984375 350.148438 278.160156 L 350.34375 274.292969 C 351.210938 274.203125 352.386719 274.226562 353.878906 274.355469 C 353.925781 274.355469 353.972656 274.355469 354.011719 274.355469 L 353.980469 274.324219 C 353.378906 274.121094 352.257812 273.976562 350.609375 273.890625 C 350.523438 273.84375 350.453125 273.84375 350.414062 273.890625 L 350.8125 268.085938 C 350.8125 268 350.8125 267.84375 350.8125 267.625 C 353.699219 267.578125 356.015625 267.554688 357.75 267.554688 C 357.75 267.46875 357.527344 267.3125 357.082031 267.085938 C 356.859375 267 356.613281 266.910156 356.347656 266.820312 C 355.054688 267.132812 353.191406 267.3125 350.746094 267.351562 C 350.683594 266.988281 350.605469 266.519531 350.511719 265.957031 C 350.453125 265.679688 350.402344 265.394531 350.34375 265.085938 C 350.226562 264.277344 350.136719 263.632812 350.078125 263.152344 C 350.523438 263.152344 350.992188 263.152344 351.480469 263.152344 C 353.746094 263.105469 355.148438 263.015625 355.679688 262.886719 C 355.300781 262.6875 354.878906 262.53125 354.414062 262.417969 C 353.523438 262.230469 352.476562 262.203125 351.277344 262.351562 C 350.921875 262.398438 350.5 262.484375 350.011719 262.621094 C 349.964844 262.398438 349.945312 262.242188 349.945312 262.152344 C 349.945312 257.394531 355.722656 255.058594 367.285156 255.148438 C 368.886719 255.101562 374.464844 255.324219 384.027344 255.816406 C 391.363281 256.171875 397.28125 256.21875 401.769531 255.953125 C 410.933594 255.414062 424.292969 255.285156 441.859375 255.550781 C 451.101562 255.726562 462.597656 255.90625 476.339844 256.082031 C 508.980469 255.90625 534.1875 255.992188 551.972656 256.347656 C 555.042969 256.394531 560.269531 256.347656 567.648438 256.21875 C 574.496094 256.082031 579.457031 256.0625 582.523438 256.148438 C 596.042969 256.726562 603.203125 257.082031 604 257.21875 C 605.378906 257.570312 606.222656 258.238281 606.535156 259.21875 C 606.535156 259.261719 606.578125 259.328125 606.667969 259.417969 C 604.359375 259.328125 602.535156 259.308594 601.199219 259.347656 C 598.484375 259.394531 596.664062 259.683594 595.730469 260.21875 C 596.621094 260.261719 598.730469 260.285156 602.066406 260.285156 C 604.289062 260.238281 605.824219 260.0625 606.667969 259.75 C 606.769531 260.292969 606.839844 261.117188 606.871094 262.21875 C 606.871094 262.574219 606.871094 262.949219 606.871094 263.351562 C 605.488281 263.289062 603.753906 263.230469 601.664062 263.183594 C 600.929688 263.171875 600.152344 263.164062 599.332031 263.152344 C 596.042969 263.152344 594.394531 263.171875 594.394531 263.21875 C 594.394531 263.664062 594.503906 263.867188 594.730469 263.820312 C 594.816406 263.867188 594.933594 263.800781 595.0625 263.621094 C 596.285156 263.691406 598.03125 263.808594 600.300781 263.988281 C 600.992188 264.035156 601.738281 264.089844 602.535156 264.152344 C 604.625 264.242188 606.066406 264.105469 606.871094 263.753906 C 606.871094 264.066406 606.832031 264.675781 606.769531 265.585938 C 606.714844 266.351562 606.640625 267.34375 606.535156 268.554688 C 605.378906 268.421875 603.84375 268.289062 601.9375 268.15625 C 601.660156 268.132812 601.394531 268.113281 601.132812 268.085938 C 599.722656 268.003906 598.542969 267.957031 597.601562 267.957031 C 596.042969 267.945312 595.105469 268.054688 594.796875 268.289062 L 595.394531 268.625 C 596.074219 268.609375 596.742188 268.597656 597.398438 268.585938 C 600.117188 268.566406 602.585938 268.609375 604.800781 268.722656 C 605.375 268.75 605.933594 268.785156 606.46875 268.820312 C 606.464844 268.851562 606.464844 268.882812 606.46875 268.921875 C 606.378906 269.496094 606.308594 270.121094 606.234375 270.792969 C 606.175781 271.222656 606.121094 271.683594 606.066406 272.15625 C 606.066406 272.609375 606.113281 273.324219 606.203125 274.292969 C 606.214844 274.472656 606.222656 274.660156 606.234375 274.855469 C 606.28125 275.363281 606.339844 275.929688 606.402344 276.558594 C 605.15625 276.113281 604.175781 275.894531 603.46875 275.894531 C 603.351562 275.902344 603.242188 275.914062 603.132812 275.925781 C 602.3125 275.992188 601.511719 276.023438 600.730469 276.023438 L 600.867188 276.089844 L 602.132812 276.558594 C 602.242188 276.511719 602.421875 276.488281 602.664062 276.492188 C 603.378906 276.492188 604.652344 276.667969 606.46875 277.023438 C 606.480469 277.125 606.488281 277.226562 606.5 277.328125 C 606.597656 278.253906 606.699219 279.265625 606.800781 280.359375 C 606.824219 280.613281 606.84375 280.871094 606.871094 281.128906 C 606.863281 281.160156 606.863281 281.191406 606.871094 281.230469 C 605.3125 281.269531 603.46875 281.183594 601.332031 280.964844 C 600.207031 280.847656 599.433594 280.792969 599.03125 280.796875 C 598.789062 280.785156 598.664062 280.796875 598.664062 280.828125 C 598.664062 281.089844 598.742188 281.296875 598.898438 281.464844 C 599 281.5625 599.148438 281.640625 599.332031 281.691406 C 599.601562 281.691406 599.839844 281.652344 600.066406 281.5625 C 601.574219 281.605469 603.867188 281.71875 606.9375 281.894531 C 606.96875 282.726562 607.058594 283.648438 607.203125 284.664062 C 607.242188 284.953125 607.289062 285.257812 607.335938 285.566406 C 607.335938 285.628906 607.335938 285.695312 607.335938 285.761719 C 607.335938 286.058594 607.335938 286.371094 607.335938 286.695312 C 607.117188 286.566406 606.9375 286.476562 606.800781 286.429688 C 605.066406 286.878906 602.820312 286.898438 600.066406 286.496094 C 599.226562 286.320312 598.539062 286.175781 597.996094 286.066406 C 597.0625 285.898438 596.601562 285.839844 596.601562 285.898438 C 596.601562 286.339844 596.820312 286.632812 597.265625 286.761719 C 597.476562 286.722656 597.683594 286.679688 597.898438 286.632812 L 597.933594 286.632812 C 599.175781 286.761719 601.113281 286.878906 603.734375 286.964844 C 605.425781 287.054688 606.625 287.097656 607.335938 287.097656 C 607.261719 288.359375 607.125 289.476562 606.9375 290.46875 C 606.894531 290.605469 606.863281 290.738281 606.832031 290.863281 C 606.824219 290.902344 606.808594 290.9375 606.800781 290.96875 C 605.558594 290.921875 603.800781 290.941406 601.535156 291.03125 C 600.710938 291.0625 599.933594 291.09375 599.199219 291.136719 C 597.058594 291.234375 595.234375 291.378906 593.730469 291.566406 C 593.203125 291.625 592.710938 291.691406 592.265625 291.765625 L 592.929688 292.03125 C 593.144531 292.015625 593.390625 291.988281 593.660156 291.96875 C 594.5 291.917969 595.625 291.875 597.03125 291.832031 C 597.148438 291.828125 597.265625 291.828125 597.398438 291.832031 C 598.273438 291.792969 599.253906 291.761719 600.332031 291.734375 C 600.722656 291.71875 601.121094 291.707031 601.535156 291.699219 C 603.710938 291.609375 605.425781 291.546875 606.667969 291.5 C 606.402344 292.390625 606.09375 293.121094 605.734375 293.699219 C 605.628906 293.886719 605.511719 294.0625 605.371094 294.234375 C 605.253906 294.34375 605.128906 294.460938 605 294.570312 C 604.332031 294.605469 603.566406 294.636719 602.703125 294.667969 C 602.476562 294.679688 602.242188 294.695312 602 294.699219 C 599.332031 294.699219 597.933594 294.726562 597.796875 294.765625 L 598.867188 295.167969 C 599.363281 295.085938 600.992188 295.0625 603.769531 295.101562 C 604 295.101562 604.226562 295.101562 604.46875 295.101562 C 604.398438 295.15625 604.332031 295.214844 604.269531 295.265625 C 603.03125 296.199219 601.363281 296.855469 599.269531 297.238281 C 598.984375 297.289062 598.632812 297.335938 598.199219 297.367188 C 597.089844 297.496094 595.464844 297.585938 593.328125 297.636719 C 586.914062 297.785156 575.882812 297.628906 560.25 297.167969 C 546.148438 296.816406 534.570312 296.636719 525.496094 296.636719 Z M 505.421875 296.167969 C 507.507812 296.082031 510.601562 295.972656 514.691406 295.835938 C 519.269531 295.570312 523.007812 295.5 525.898438 295.636719 C 522.828125 295.058594 519.136719 294.945312 514.824219 295.304688 C 511.046875 295.699219 507.910156 295.992188 505.421875 296.167969 " fill-opacity="1" fill-rule="evenodd"/><g clip-path="url(#725d4a3ead)"><path fill="#000000" d="M 566.183594 295.570312 C 568.585938 295.167969 573.472656 294.992188 580.859375 295.03125 C 587.46875 295.070312 591.648438 295.085938 593.394531 295.070312 C 593.777344 295.054688 594.042969 295.042969 594.199219 295.03125 C 595.089844 295.433594 595.597656 295.746094 595.730469 295.972656 L 567.253906 296.101562 Z M 532.765625 295.902344 L 531.699219 295.433594 C 540.59375 295.078125 550 295.277344 559.914062 296.035156 L 559.914062 296.101562 C 555.246094 296.550781 550.066406 296.570312 544.371094 296.167969 C 538.503906 295.855469 534.632812 295.765625 532.765625 295.902344 Z M 405.234375 296.699219 L 404.773438 296.902344 L 403.636719 296.503906 C 403.726562 296.414062 404.015625 296.394531 404.507812 296.433594 C 404.949219 296.433594 405.195312 296.523438 405.234375 296.699219 Z M 409.570312 296.304688 C 409.882812 296.257812 410.796875 296.214844 412.308594 296.167969 C 413.996094 296.082031 415.132812 296.101562 415.710938 296.238281 C 415.308594 296.367188 414.484375 296.480469 413.238281 296.570312 C 411.996094 296.613281 411.238281 296.699219 410.972656 296.835938 Z M 394.296875 296.699219 C 396.257812 296.699219 397.65625 296.746094 398.503906 296.835938 C 398.191406 297.058594 397.347656 297.277344 395.964844 297.503906 C 394.5 297.769531 393.5 297.816406 392.964844 297.636719 C 392.257812 297.414062 391.609375 297.148438 391.03125 296.835938 C 391.167969 296.746094 392.257812 296.699219 394.296875 296.699219 Z M 402.371094 296.972656 L 400.902344 297.035156 C 400.191406 297.394531 399.835938 297.214844 399.835938 296.503906 C 399.835938 296.058594 400.105469 295.925781 400.636719 296.101562 C 401.078125 296.277344 401.300781 296.347656 401.300781 296.304688 C 401.480469 296.394531 401.636719 296.503906 401.769531 296.636719 C 402.125 296.769531 402.324219 296.882812 402.371094 296.972656 Z M 384.960938 296.699219 L 385.761719 296.636719 L 386.832031 297.304688 L 385.429688 297.367188 L 384.292969 296.902344 C 384.292969 296.816406 384.519531 296.746094 384.960938 296.699219 Z M 369.21875 298.167969 C 369.265625 298.121094 371.777344 297.699219 376.757812 296.902344 C 379.378906 296.414062 381.761719 296.414062 383.894531 296.902344 C 376.734375 297.789062 372.042969 298.304688 369.824219 298.433594 Z M 365.753906 289.96875 C 365.894531 289.929688 365.984375 289.882812 366.019531 289.832031 L 366.019531 289.765625 L 368.355469 290.832031 Z M 360.28125 290.164062 C 359.75 290.34375 358.722656 290.566406 357.214844 290.832031 C 356.722656 291.234375 356.484375 291.078125 356.484375 290.363281 C 356.484375 290.144531 357.058594 290.007812 358.214844 289.96875 C 359.238281 289.921875 359.929688 289.988281 360.28125 290.164062 Z M 363.550781 296.433594 L 364.550781 297.101562 C 364.519531 297.066406 363.527344 297.246094 361.585938 297.636719 C 361.105469 297.730469 360.558594 297.847656 359.949219 297.972656 C 357.90625 298.324219 355.503906 298.367188 352.746094 298.101562 C 354.894531 297.972656 358.433594 297.425781 363.351562 296.472656 C 363.414062 296.460938 363.480469 296.449219 363.550781 296.433594 Z M 360.820312 284.496094 C 359.484375 284.542969 358.703125 284.605469 358.484375 284.695312 L 357.75 284.359375 C 358.417969 284.007812 359.238281 283.761719 360.214844 283.632812 C 360.75 283.652344 361.183594 283.664062 361.515625 283.664062 C 361.835938 283.664062 362.070312 283.652344 362.214844 283.632812 C 362.488281 283.761719 362.726562 283.898438 362.949219 284.027344 C 363.441406 284.210938 363.683594 284.339844 363.683594 284.429688 C 363.101562 284.429688 362.433594 284.4375 361.683594 284.464844 C 361.40625 284.476562 361.117188 284.484375 360.820312 284.496094 Z M 352.347656 284.296875 L 352.347656 283.296875 C 352.964844 283.476562 353.457031 283.605469 353.816406 283.695312 C 354.152344 283.820312 354.566406 283.984375 355.046875 284.195312 C 355.242188 284.289062 355.457031 284.390625 355.679688 284.496094 C 355.59375 284.527344 355.09375 284.5 354.179688 284.429688 C 353.691406 284.402344 353.074219 284.359375 352.347656 284.296875 Z M 357.546875 274.089844 C 356.375 274.164062 355.578125 274.164062 355.148438 274.089844 C 355.035156 274.074219 354.941406 274.054688 354.878906 274.023438 C 355.054688 273.578125 355.96875 273.355469 357.613281 273.355469 C 358.046875 273.34375 358.433594 273.34375 358.78125 273.355469 C 359.640625 273.375 360.277344 273.464844 360.683594 273.625 C 360.554688 273.703125 360.359375 273.773438 360.117188 273.824219 C 359.652344 273.945312 358.984375 274.023438 358.113281 274.058594 C 357.933594 274.074219 357.738281 274.085938 357.546875 274.089844 Z M 361.617188 273.625 C 361.882812 273.539062 362.332031 273.539062 362.949219 273.625 C 363.144531 273.648438 363.289062 273.609375 363.382812 273.523438 C 363.496094 273.445312 363.550781 273.296875 363.550781 273.089844 C 363.683594 273.136719 363.839844 273.203125 364.019531 273.292969 C 364.332031 273.46875 364.507812 273.625 364.550781 273.757812 L 362.214844 273.960938 Z M 362.152344 267.253906 C 361.21875 267.273438 360.6875 267.289062 360.546875 267.289062 C 360.152344 267.6875 359.949219 267.535156 359.949219 266.820312 C 359.949219 266.648438 360.574219 266.5625 361.820312 266.554688 C 361.859375 266.554688 361.90625 266.554688 361.949219 266.554688 C 363.417969 266.46875 364.214844 266.421875 364.351562 266.421875 C 364.527344 266.46875 364.683594 266.507812 364.820312 266.554688 C 365.128906 266.734375 365.332031 266.867188 365.421875 266.957031 C 365.195312 267.132812 364.417969 267.222656 363.085938 267.222656 C 362.738281 267.234375 362.429688 267.242188 362.152344 267.253906 Z M 359.015625 262.484375 C 359.996094 261.507812 361.417969 261.59375 363.285156 262.75 C 362.085938 262.484375 360.75 262.507812 359.28125 262.820312 Z M 587.195312 291.433594 C 587.195312 291.609375 586.835938 291.699219 586.125 291.699219 C 585.417969 291.609375 585.035156 291.589844 584.988281 291.636719 L 584.324219 291.433594 C 584.5 291.121094 585.015625 290.988281 585.859375 291.03125 C 586.65625 291.121094 587.105469 291.253906 587.195312 291.433594 Z M 591.863281 280.828125 C 591.863281 280.386719 592.039062 280.207031 592.394531 280.296875 C 592.617188 280.386719 592.796875 280.472656 592.929688 280.5625 C 593.550781 280.78125 593.886719 281.027344 593.933594 281.296875 C 593.21875 281.25 592.753906 281.296875 592.53125 281.425781 C 592.394531 281.472656 592.285156 281.496094 592.195312 281.496094 C 591.972656 281.496094 591.863281 281.269531 591.863281 280.828125 Z M 588.058594 286.429688 C 587.390625 286.519531 586.417969 286.496094 585.125 286.363281 C 585.4375 286.183594 586.058594 286.054688 586.992188 285.964844 C 587.167969 285.917969 587.28125 285.878906 587.324219 285.832031 C 587.773438 286.097656 588.015625 286.300781 588.058594 286.429688 Z M 583.457031 280.5625 C 584.75 280.160156 586.195312 280.074219 587.792969 280.296875 C 589.167969 280.472656 590.394531 280.808594 591.460938 281.296875 C 587.195312 280.808594 584.878906 280.691406 584.527344 280.964844 Z M 582.65625 274.492188 C 583.902344 274.226562 584.59375 274.070312 584.722656 274.023438 C 585.480469 274.246094 585.882812 274.472656 585.929688 274.691406 C 584.683594 274.691406 583.792969 274.738281 583.261719 274.824219 Z M 591.394531 275.558594 C 591.128906 275.558594 590.992188 275.316406 590.992188 274.824219 C 590.992188 274.382812 591.265625 274.246094 591.796875 274.425781 L 593.933594 275.558594 C 592.640625 275.292969 591.882812 275.246094 591.660156 275.425781 C 591.570312 275.511719 591.484375 275.558594 591.394531 275.558594 Z M 593.328125 286.429688 C 593.109375 286.519531 592.882812 286.542969 592.660156 286.496094 C 592.128906 286.449219 591.863281 286.210938 591.863281 285.761719 C 591.863281 285.273438 592.195312 285.144531 592.863281 285.363281 C 593.171875 285.410156 593.484375 285.519531 593.796875 285.695312 C 594.144531 285.835938 594.433594 285.960938 594.660156 286.066406 C 595.027344 286.242188 595.25 286.386719 595.328125 286.496094 C 595.058594 286.476562 594.8125 286.457031 594.597656 286.429688 C 593.921875 286.398438 593.5 286.398438 593.328125 286.429688 Z M 595.394531 275.292969 C 595.828125 275.414062 596.171875 275.539062 596.433594 275.660156 C 596.734375 275.785156 596.929688 275.902344 596.996094 276.023438 C 596.886719 276.050781 596.6875 276.011719 596.398438 275.925781 C 596.128906 275.835938 595.777344 275.691406 595.328125 275.492188 C 595.328125 275.316406 595.355469 275.246094 595.394531 275.292969 Z M 592.265625 267.625 C 592.351562 267.625 592.707031 267.6875 593.328125 267.820312 C 593.953125 267.957031 594.265625 268.085938 594.265625 268.222656 C 594.089844 268.351562 593.707031 268.332031 593.128906 268.15625 C 592.550781 267.976562 592.265625 267.800781 592.265625 267.625 Z M 589.792969 268.085938 C 590.417969 268.441406 590.085938 268.535156 588.792969 268.351562 C 587.726562 268.3125 586.773438 268.222656 585.929688 268.085938 C 585.082031 267.46875 585.65625 267.222656 587.65625 267.351562 C 589.972656 267.625 590.683594 267.867188 589.792969 268.085938 Z M 590.527344 259.621094 L 590.660156 259.886719 C 590.480469 259.925781 588.597656 259.953125 584.988281 259.953125 C 584.859375 260.082031 584.75 260.128906 584.65625 260.082031 C 584.4375 260.128906 584.324219 259.925781 584.324219 259.484375 C 584.324219 259.261719 585.082031 259.152344 586.59375 259.152344 C 588.195312 259.105469 589.503906 259.261719 590.527344 259.621094 Z M 587.527344 263.085938 C 584.859375 262.953125 583.144531 262.976562 582.390625 263.152344 L 581.390625 262.683594 C 582.144531 262.417969 584.082031 262.375 587.195312 262.554688 C 590.304688 262.683594 592.148438 262.90625 592.726562 263.21875 C 592.109375 263.261719 590.371094 263.21875 587.527344 263.085938 Z M 346.8125 281.730469 C 346.863281 280.816406 346.917969 279.847656 346.980469 278.828125 C 346.988281 278.71875 347.003906 278.609375 347.011719 278.492188 L 347.042969 278.191406 L 347.480469 271.6875 L 347.609375 269.921875 L 347.8125 267.085938 C 347.792969 266.925781 347.761719 266.703125 347.707031 266.421875 C 347.660156 265.996094 347.582031 265.441406 347.480469 264.753906 C 347.378906 264.144531 347.300781 263.605469 347.246094 263.152344 C 347.089844 262.125 347.011719 261.460938 347.011719 261.152344 C 346.566406 254.835938 353.035156 251.746094 366.421875 251.882812 L 366.421875 251.949219 C 367.972656 251.859375 373.601562 252.078125 383.292969 252.617188 C 390.5 252.882812 396.320312 252.902344 400.769531 252.679688 C 409.929688 252.195312 423.332031 252.058594 440.988281 252.28125 C 450.238281 252.414062 461.753906 252.589844 475.542969 252.816406 L 475.472656 252.882812 C 508.109375 252.65625 533.34375 252.726562 551.175781 253.082031 C 554.199219 253.128906 559.378906 253.082031 566.714844 252.949219 C 573.609375 252.769531 578.613281 252.746094 581.722656 252.882812 C 595.550781 253.460938 602.890625 253.863281 603.734375 254.082031 L 603.867188 254.148438 C 606.800781 254.863281 608.625 256.414062 609.335938 258.816406 C 609.335938 258.863281 609.359375 258.925781 609.402344 259.015625 C 609.632812 259.574219 609.777344 260.730469 609.835938 262.484375 C 609.863281 263.121094 609.871094 263.832031 609.871094 264.621094 C 609.871094 264.835938 609.847656 265.269531 609.804688 265.917969 C 609.730469 266.722656 609.617188 267.851562 609.46875 269.324219 C 609.414062 269.890625 609.34375 270.515625 609.273438 271.1875 C 609.210938 271.78125 609.140625 272.414062 609.070312 273.089844 C 609.070312 273.492188 609.105469 274.089844 609.167969 274.894531 C 609.179688 275.058594 609.1875 275.238281 609.203125 275.425781 C 609.246094 275.960938 609.289062 276.570312 609.335938 277.257812 C 609.359375 277.484375 609.382812 277.71875 609.402344 277.960938 C 609.496094 278.84375 609.59375 279.832031 609.703125 280.925781 C 609.734375 281.214844 609.765625 281.5 609.804688 281.796875 C 609.925781 282.898438 610.058594 284.101562 610.207031 285.398438 C 610.222656 285.621094 610.242188 285.855469 610.273438 286.097656 C 610.273438 286.230469 610.273438 286.363281 610.273438 286.496094 L 610.273438 286.527344 C 610.269531 288.453125 610.148438 290.140625 609.902344 291.597656 C 609.878906 291.753906 609.855469 291.910156 609.835938 292.066406 C 609.542969 293.542969 609.121094 294.765625 608.570312 295.734375 C 608.496094 295.855469 608.417969 295.980469 608.335938 296.101562 L 608.335938 296.167969 C 608.292969 296.242188 608.246094 296.308594 608.203125 296.367188 C 607.148438 297.960938 605.390625 299.140625 602.9375 299.90625 C 602.664062 299.992188 602.390625 300.070312 602.101562 300.140625 C 601.601562 300.28125 601.082031 300.40625 600.535156 300.503906 C 599.910156 300.625 598.90625 300.726562 597.53125 300.804688 C 596.40625 300.863281 595.03125 300.90625 593.394531 300.9375 C 586.789062 301.035156 576.027344 300.867188 561.113281 300.4375 C 547.019531 300.082031 535.433594 299.90625 526.363281 299.90625 C 513.382812 299.945312 500.21875 300.347656 486.878906 301.101562 C 473.757812 301.816406 460.574219 302.238281 447.324219 302.371094 C 433.222656 302.328125 422.355469 302.328125 414.710938 302.371094 C 411.777344 302.457031 399.878906 302.792969 379.027344 303.371094 C 374.113281 303.5 369.890625 303.605469 366.351562 303.671875 C 365.140625 303.683594 364.003906 303.691406 362.949219 303.703125 C 361.484375 303.730469 360.171875 303.738281 359.015625 303.738281 C 357.785156 303.75 356.726562 303.75 355.847656 303.738281 C 353.976562 303.730469 352.917969 303.671875 352.679688 303.574219 C 352.117188 303.386719 351.585938 303.160156 351.078125 302.90625 C 350.914062 302.808594 350.746094 302.707031 350.578125 302.605469 C 348.777344 301.453125 347.5 299.707031 346.746094 297.367188 C 346.65625 297.101562 346.609375 296.855469 346.609375 296.636719 C 346.363281 295.070312 346.234375 294.101562 346.207031 293.734375 L 346.207031 293.570312 C 346.207031 293.429688 346.207031 293.277344 346.207031 293.097656 C 346.230469 291.941406 346.308594 290.03125 346.441406 287.363281 C 346.46875 287.019531 346.488281 286.648438 346.511719 286.261719 C 346.582031 285.164062 346.660156 283.949219 346.746094 282.632812 C 346.761719 282.339844 346.785156 282.035156 346.8125 281.730469 Z M 505.421875 296.167969 C 507.910156 295.992188 511.046875 295.699219 514.824219 295.304688 C 519.136719 294.945312 522.828125 295.058594 525.898438 295.636719 C 523.007812 295.5 519.269531 295.570312 514.691406 295.835938 C 510.601562 295.972656 507.507812 296.082031 505.421875 296.167969 Z M 525.496094 296.636719 C 534.570312 296.636719 546.148438 296.816406 560.25 297.167969 C 575.882812 297.628906 586.914062 297.785156 593.328125 297.636719 C 595.464844 297.585938 597.089844 297.496094 598.199219 297.367188 C 598.632812 297.335938 598.984375 297.289062 599.269531 297.238281 C 601.363281 296.855469 603.03125 296.199219 604.269531 295.265625 C 604.332031 295.214844 604.398438 295.15625 604.46875 295.101562 C 604.226562 295.101562 604 295.101562 603.769531 295.101562 C 600.992188 295.0625 599.363281 295.085938 598.867188 295.167969 L 597.796875 294.765625 C 597.933594 294.726562 599.332031 294.699219 602 294.699219 C 602.242188 294.695312 602.476562 294.679688 602.703125 294.667969 C 603.566406 294.636719 604.332031 294.605469 605 294.570312 C 605.128906 294.460938 605.253906 294.34375 605.371094 294.234375 C 605.511719 294.0625 605.628906 293.886719 605.734375 293.699219 C 606.09375 293.121094 606.402344 292.390625 606.667969 291.5 C 605.425781 291.546875 603.710938 291.609375 601.535156 291.699219 C 601.121094 291.707031 600.722656 291.71875 600.332031 291.734375 C 599.253906 291.761719 598.273438 291.792969 597.398438 291.832031 C 597.265625 291.828125 597.148438 291.828125 597.03125 291.832031 C 595.625 291.875 594.5 291.917969 593.660156 291.96875 C 593.390625 291.988281 593.144531 292.015625 592.929688 292.03125 L 592.265625 291.765625 C 592.710938 291.691406 593.203125 291.625 593.730469 291.566406 C 595.234375 291.378906 597.058594 291.234375 599.199219 291.136719 C 599.933594 291.09375 600.710938 291.0625 601.535156 291.03125 C 603.800781 290.941406 605.558594 290.921875 606.800781 290.96875 C 606.808594 290.9375 606.824219 290.902344 606.832031 290.863281 C 606.863281 290.738281 606.894531 290.605469 606.9375 290.46875 C 607.125 289.476562 607.261719 288.359375 607.335938 287.097656 C 606.625 287.097656 605.425781 287.054688 603.734375 286.964844 C 601.113281 286.878906 599.175781 286.761719 597.933594 286.632812 L 597.898438 286.632812 C 597.683594 286.679688 597.476562 286.722656 597.265625 286.761719 C 596.820312 286.632812 596.601562 286.339844 596.601562 285.898438 C 596.601562 285.839844 597.0625 285.898438 597.996094 286.066406 C 598.539062 286.175781 599.226562 286.320312 600.066406 286.496094 C 602.820312 286.898438 605.066406 286.878906 606.800781 286.429688 C 606.9375 286.476562 607.117188 286.566406 607.335938 286.695312 C 607.335938 286.371094 607.335938 286.058594 607.335938 285.761719 C 607.335938 285.695312 607.335938 285.628906 607.335938 285.566406 C 607.289062 285.257812 607.242188 284.953125 607.203125 284.664062 C 607.058594 283.648438 606.96875 282.726562 606.9375 281.894531 C 603.867188 281.71875 601.574219 281.605469 600.066406 281.5625 C 599.839844 281.652344 599.601562 281.691406 599.332031 281.691406 C 599.148438 281.640625 599 281.5625 598.898438 281.464844 C 598.742188 281.296875 598.664062 281.089844 598.664062 280.828125 C 598.664062 280.796875 598.789062 280.785156 599.03125 280.796875 C 599.433594 280.792969 600.207031 280.847656 601.332031 280.964844 C 603.46875 281.183594 605.3125 281.269531 606.871094 281.230469 C 606.863281 281.191406 606.863281 281.160156 606.871094 281.128906 C 606.84375 280.871094 606.824219 280.613281 606.800781 280.359375 C 606.699219 279.265625 606.597656 278.253906 606.5 277.328125 C 606.488281 277.226562 606.480469 277.125 606.46875 277.023438 C 604.652344 276.667969 603.378906 276.492188 602.664062 276.492188 C 602.421875 276.488281 602.242188 276.511719 602.132812 276.558594 L 600.867188 276.089844 L 600.730469 276.023438 C 601.511719 276.023438 602.3125 275.992188 603.132812 275.925781 C 603.242188 275.914062 603.351562 275.902344 603.46875 275.894531 C 604.175781 275.894531 605.15625 276.113281 606.402344 276.558594 C 606.339844 275.929688 606.28125 275.363281 606.234375 274.855469 C 606.222656 274.660156 606.214844 274.472656 606.203125 274.292969 C 606.113281 273.324219 606.066406 272.609375 606.066406 272.15625 C 606.121094 271.683594 606.175781 271.222656 606.234375 270.792969 C 606.308594 270.121094 606.378906 269.496094 606.46875 268.921875 C 606.464844 268.882812 606.464844 268.851562 606.46875 268.820312 C 605.933594 268.785156 605.375 268.75 604.800781 268.722656 C 602.585938 268.609375 600.117188 268.566406 597.398438 268.585938 C 596.742188 268.597656 596.074219 268.609375 595.394531 268.625 L 594.796875 268.289062 C 595.105469 268.054688 596.042969 267.945312 597.601562 267.957031 C 598.542969 267.957031 599.722656 268.003906 601.132812 268.085938 C 601.394531 268.113281 601.660156 268.132812 601.9375 268.15625 C 603.84375 268.289062 605.378906 268.421875 606.535156 268.554688 C 606.640625 267.34375 606.714844 266.351562 606.769531 265.585938 C 606.832031 264.675781 606.871094 264.066406 606.871094 263.753906 C 606.066406 264.105469 604.625 264.242188 602.535156 264.152344 C 601.738281 264.089844 600.992188 264.035156 600.300781 263.988281 C 598.03125 263.808594 596.285156 263.691406 595.0625 263.621094 C 594.933594 263.800781 594.816406 263.867188 594.730469 263.820312 C 594.503906 263.867188 594.394531 263.664062 594.394531 263.21875 C 594.394531 263.171875 596.042969 263.152344 599.332031 263.152344 C 600.152344 263.164062 600.929688 263.171875 601.664062 263.183594 C 603.753906 263.230469 605.488281 263.289062 606.871094 263.351562 C 606.871094 262.949219 606.871094 262.574219 606.871094 262.21875 C 606.839844 261.117188 606.769531 260.292969 606.667969 259.75 C 605.824219 260.0625 604.289062 260.238281 602.066406 260.285156 C 598.730469 260.285156 596.621094 260.261719 595.730469 260.21875 C 596.664062 259.683594 598.484375 259.394531 601.199219 259.347656 C 602.535156 259.308594 604.359375 259.328125 606.667969 259.417969 C 606.578125 259.328125 606.535156 259.261719 606.535156 259.21875 C 606.222656 258.238281 605.378906 257.570312 604 257.21875 C 603.203125 257.082031 596.042969 256.726562 582.523438 256.148438 C 579.457031 256.0625 574.496094 256.082031 567.648438 256.21875 C 560.269531 256.347656 555.042969 256.394531 551.972656 256.347656 C 534.1875 255.992188 508.980469 255.90625 476.339844 256.082031 C 462.597656 255.90625 451.101562 255.726562 441.859375 255.550781 C 424.292969 255.285156 410.933594 255.414062 401.769531 255.953125 C 397.28125 256.21875 391.363281 256.171875 384.027344 255.816406 C 374.464844 255.324219 368.886719 255.101562 367.285156 255.148438 C 355.722656 255.058594 349.945312 257.394531 349.945312 262.152344 C 349.945312 262.242188 349.964844 262.398438 350.011719 262.621094 C 350.5 262.484375 350.921875 262.398438 351.277344 262.351562 C 352.476562 262.203125 353.523438 262.230469 354.414062 262.417969 C 354.878906 262.53125 355.300781 262.6875 355.679688 262.886719 C 355.148438 263.015625 353.746094 263.105469 351.480469 263.152344 C 350.992188 263.152344 350.523438 263.152344 350.078125 263.152344 C 350.136719 263.632812 350.226562 264.277344 350.34375 265.085938 C 350.402344 265.394531 350.453125 265.679688 350.511719 265.957031 C 350.605469 266.519531 350.683594 266.988281 350.746094 267.351562 C 353.191406 267.3125 355.054688 267.132812 356.347656 266.820312 C 356.613281 266.910156 356.859375 267 357.082031 267.085938 C 357.527344 267.3125 357.75 267.46875 357.75 267.554688 C 356.015625 267.554688 353.699219 267.578125 350.8125 267.625 C 350.8125 267.84375 350.8125 268 350.8125 268.085938 L 350.414062 273.890625 C 350.453125 273.84375 350.523438 273.84375 350.609375 273.890625 C 352.257812 273.976562 353.378906 274.121094 353.980469 274.324219 L 354.011719 274.355469 C 353.972656 274.355469 353.925781 274.355469 353.878906 274.355469 C 352.386719 274.226562 351.210938 274.203125 350.34375 274.292969 L 350.148438 278.160156 C 351.433594 277.984375 353.011719 277.847656 354.878906 277.757812 C 356.96875 277.773438 358.832031 277.789062 360.484375 277.796875 C 361.742188 277.789062 362.878906 277.78125 363.882812 277.757812 C 365.0625 277.742188 366.0625 277.722656 366.882812 277.691406 L 368.355469 278.425781 C 367.367188 278.507812 365.925781 278.597656 364.019531 278.691406 C 362.417969 278.753906 360.496094 278.820312 358.25 278.894531 C 357.5 278.914062 356.707031 278.9375 355.878906 278.960938 C 353.570312 279.050781 351.632812 279.160156 350.078125 279.296875 L 350.011719 279.691406 C 349.984375 280.167969 349.960938 280.636719 349.945312 281.09375 C 349.921875 281.40625 349.902344 281.703125 349.875 281.996094 C 349.835938 282.683594 349.789062 283.339844 349.746094 283.964844 C 350.1875 283.964844 350.480469 283.984375 350.609375 284.027344 C 350.480469 284.074219 350.1875 284.117188 349.746094 284.164062 C 349.710938 284.632812 349.671875 285.089844 349.648438 285.527344 C 349.609375 285.929688 349.574219 286.320312 349.542969 286.695312 C 349.429688 288.363281 349.339844 289.785156 349.277344 290.96875 C 349.324219 290.921875 349.367188 290.855469 349.414062 290.765625 C 349.453125 290.765625 349.523438 290.746094 349.609375 290.699219 C 350.949219 290.699219 352.027344 290.6875 352.847656 290.667969 C 353.414062 290.65625 353.855469 290.644531 354.179688 290.636719 C 354.472656 290.613281 354.660156 290.589844 354.75 290.566406 C 354.632812 290.628906 354.347656 290.699219 353.878906 290.765625 C 353.445312 290.824219 352.867188 290.875 352.148438 290.933594 C 351.421875 290.988281 350.554688 291.042969 349.542969 291.097656 C 349.453125 291.097656 349.367188 291.097656 349.277344 291.097656 C 349.273438 291.417969 349.257812 291.71875 349.246094 292 C 349.246094 292.199219 349.246094 292.386719 349.246094 292.566406 C 349.21875 293.429688 349.210938 294.09375 349.210938 294.570312 C 349.210938 294.609375 349.296875 295.328125 349.480469 296.738281 C 349.492188 296.789062 349.507812 296.847656 349.511719 296.902344 C 349.523438 296.988281 349.53125 297.074219 349.542969 297.167969 C 350.078125 298.90625 351.121094 300.015625 352.679688 300.503906 C 352.898438 300.578125 353.941406 300.609375 355.816406 300.601562 C 356.1875 300.609375 356.585938 300.609375 357.015625 300.601562 C 358.644531 300.578125 360.742188 300.535156 363.285156 300.472656 C 364.332031 300.445312 365.453125 300.410156 366.65625 300.367188 C 369.886719 300.289062 373.675781 300.179688 378.023438 300.035156 C 398.925781 299.414062 410.84375 299.101562 413.777344 299.101562 C 421.378906 299.015625 432.25 298.992188 446.390625 299.035156 C 459.644531 298.945312 472.804688 298.550781 485.878906 297.835938 C 499.261719 297.082031 512.464844 296.679688 525.496094 296.636719 Z M 472.207031 296.304688 C 480.210938 295.589844 487.8125 295.367188 495.015625 295.636719 C 490.304688 296.035156 486.765625 296.304688 484.410156 296.433594 C 480.40625 296.660156 476.339844 296.613281 472.207031 296.304688 Z M 467.539062 296.035156 C 467.667969 295.992188 467.980469 295.972656 468.46875 295.972656 C 468.914062 295.972656 469.265625 296.011719 469.539062 296.101562 L 469.601562 296.304688 L 468.601562 296.503906 Z M 463.800781 296.238281 C 464.15625 295.925781 464.507812 295.816406 464.871094 295.902344 C 464.777344 296.347656 464.421875 296.457031 463.800781 296.238281 Z M 450.257812 296.769531 C 448.660156 296.855469 446.859375 296.699219 444.859375 296.304688 C 445.480469 295.992188 446.746094 295.835938 448.660156 295.835938 C 450.617188 295.972656 451.660156 296.035156 451.796875 296.035156 C 451.925781 296.082031 452.082031 296.148438 452.257812 296.238281 C 452.570312 296.367188 452.75 296.480469 452.796875 296.570312 C 452.4375 296.613281 451.59375 296.679688 450.257812 296.769531 Z M 444.058594 296.433594 C 442.8125 296.613281 440.832031 296.746094 438.121094 296.835938 C 435.230469 296.882812 432.582031 296.835938 430.1875 296.699219 C 434.1875 296.347656 436.5625 296.148438 437.320312 296.101562 C 439.945312 295.882812 442.144531 295.902344 443.921875 296.167969 Z M 417.710938 296.835938 C 417.308594 297.238281 417.113281 297.082031 417.113281 296.367188 C 417.113281 295.925781 417.511719 295.765625 418.308594 295.902344 C 419.242188 296.121094 419.753906 296.214844 419.847656 296.167969 C 420.023438 296.214844 420.179688 296.304688 420.3125 296.433594 C 420.625 296.613281 420.800781 296.769531 420.847656 296.902344 L 417.710938 296.835938 " fill-opacity="1" fill-rule="evenodd"/></g><g fill="#000000" fill-opacity="1"><g transform="translate(373.515952, 279.722614)"><g><path d="M 0.703125 -1.609375 L 1.84375 -1.609375 L 1.84375 -12.59375 L 0.703125 -12.59375 L 0.703125 -14.203125 L 5.21875 -14.203125 L 5.21875 -12.59375 L 3.53125 -12.59375 L 3.53125 -1.609375 L 9.265625 -1.609375 L 9.265625 -3.125 L 10.875 -3.125 L 10.875 0 L 0.703125 0 Z M 0.703125 -1.609375 "/></g></g></g><g fill="#000000" fill-opacity="1"><g transform="translate(385.098791, 279.722614)"><g><path d="M 0.703125 -3.8125 C 0.703125 -4.351562 0.804688 -4.863281 1.015625 -5.34375 C 1.234375 -5.832031 1.523438 -6.253906 1.890625 -6.609375 C 2.253906 -6.972656 2.679688 -7.257812 3.171875 -7.46875 C 3.671875 -7.675781 4.203125 -7.78125 4.765625 -7.78125 C 5.335938 -7.78125 5.875 -7.675781 6.375 -7.46875 C 6.875 -7.257812 7.304688 -6.972656 7.671875 -6.609375 C 8.035156 -6.253906 8.320312 -5.832031 8.53125 -5.34375 C 8.738281 -4.863281 8.84375 -4.351562 8.84375 -3.8125 C 8.84375 -3.257812 8.738281 -2.742188 8.53125 -2.265625 C 8.320312 -1.785156 8.035156 -1.363281 7.671875 -1 C 7.304688 -0.632812 6.875 -0.34375 6.375 -0.125 C 5.875 0.0820312 5.335938 0.1875 4.765625 0.1875 C 4.203125 0.1875 3.671875 0.0820312 3.171875 -0.125 C 2.679688 -0.34375 2.253906 -0.632812 1.890625 -1 C 1.523438 -1.363281 1.234375 -1.785156 1.015625 -2.265625 C 0.804688 -2.742188 0.703125 -3.257812 0.703125 -3.8125 Z M 2.390625 -3.796875 C 2.390625 -3.472656 2.453125 -3.164062 2.578125 -2.875 C 2.703125 -2.59375 2.867188 -2.347656 3.078125 -2.140625 C 3.285156 -1.929688 3.53125 -1.765625 3.8125 -1.640625 C 4.09375 -1.515625 4.394531 -1.453125 4.71875 -1.453125 C 5.050781 -1.453125 5.359375 -1.515625 5.640625 -1.640625 C 5.921875 -1.765625 6.171875 -1.929688 6.390625 -2.140625 C 6.609375 -2.347656 6.773438 -2.59375 6.890625 -2.875 C 7.015625 -3.164062 7.078125 -3.472656 7.078125 -3.796875 C 7.078125 -4.117188 7.015625 -4.421875 6.890625 -4.703125 C 6.773438 -4.984375 6.609375 -5.234375 6.390625 -5.453125 C 6.171875 -5.671875 5.921875 -5.835938 5.640625 -5.953125 C 5.359375 -6.078125 5.050781 -6.140625 4.71875 -6.140625 C 4.394531 -6.140625 4.09375 -6.078125 3.8125 -5.953125 C 3.53125 -5.835938 3.285156 -5.671875 3.078125 -5.453125 C 2.867188 -5.234375 2.703125 -4.984375 2.578125 -4.703125 C 2.453125 -4.421875 2.390625 -4.117188 2.390625 -3.796875 Z M 2.390625 -3.796875 "/></g></g></g><g fill="#000000" fill-opacity="1"><g transform="translate(394.65312, 279.722614)"><g><path d="M 7.4375 -7.609375 L 10.390625 -7.609375 L 10.390625 -6 L 8.84375 -6 L 8.84375 1.21875 C 8.84375 1.757812 8.738281 2.257812 8.53125 2.71875 C 8.320312 3.1875 8.035156 3.59375 7.671875 3.9375 C 7.304688 4.289062 6.878906 4.566406 6.390625 4.765625 C 5.898438 4.972656 5.375 5.078125 4.8125 5.078125 C 4.195312 5.078125 3.601562 4.941406 3.03125 4.671875 C 2.46875 4.410156 1.984375 4.140625 1.578125 3.859375 L 2.703125 2.46875 C 2.972656 2.675781 3.285156 2.867188 3.640625 3.046875 C 3.992188 3.234375 4.367188 3.328125 4.765625 3.328125 C 5.117188 3.328125 5.441406 3.265625 5.734375 3.140625 C 6.023438 3.023438 6.273438 2.859375 6.484375 2.640625 C 6.703125 2.429688 6.867188 2.179688 6.984375 1.890625 C 7.097656 1.597656 7.15625 1.285156 7.15625 0.953125 L 7.15625 -0.40625 C 7.1875 -0.457031 7.210938 -0.515625 7.234375 -0.578125 C 7.265625 -0.640625 7.296875 -0.703125 7.328125 -0.765625 C 7.285156 -0.703125 7.195312 -0.617188 7.0625 -0.515625 C 6.925781 -0.410156 6.75 -0.304688 6.53125 -0.203125 C 6.3125 -0.109375 6.054688 -0.0234375 5.765625 0.046875 C 5.472656 0.117188 5.144531 0.15625 4.78125 0.15625 C 4.21875 0.15625 3.6875 0.0507812 3.1875 -0.15625 C 2.6875 -0.363281 2.253906 -0.644531 1.890625 -1 C 1.523438 -1.363281 1.234375 -1.785156 1.015625 -2.265625 C 0.804688 -2.742188 0.703125 -3.253906 0.703125 -3.796875 C 0.703125 -4.316406 0.804688 -4.820312 1.015625 -5.3125 C 1.234375 -5.800781 1.523438 -6.226562 1.890625 -6.59375 C 2.253906 -6.957031 2.6875 -7.242188 3.1875 -7.453125 C 3.6875 -7.671875 4.21875 -7.78125 4.78125 -7.78125 C 5.144531 -7.78125 5.484375 -7.726562 5.796875 -7.625 C 6.109375 -7.519531 6.378906 -7.398438 6.609375 -7.265625 C 6.835938 -7.140625 7.019531 -7.015625 7.15625 -6.890625 C 7.289062 -6.773438 7.359375 -6.695312 7.359375 -6.65625 C 7.359375 -6.800781 7.367188 -6.953125 7.390625 -7.109375 C 7.421875 -7.273438 7.4375 -7.441406 7.4375 -7.609375 Z M 2.40625 -3.8125 C 2.40625 -3.144531 2.625 -2.582031 3.0625 -2.125 C 3.507812 -1.675781 4.082031 -1.453125 4.78125 -1.453125 C 5.488281 -1.453125 6.0625 -1.675781 6.5 -2.125 C 6.9375 -2.582031 7.15625 -3.144531 7.15625 -3.8125 C 7.15625 -4.488281 6.9375 -5.046875 6.5 -5.484375 C 6.0625 -5.921875 5.488281 -6.140625 4.78125 -6.140625 C 4.082031 -6.140625 3.507812 -5.921875 3.0625 -5.484375 C 2.625 -5.046875 2.40625 -4.488281 2.40625 -3.8125 Z M 2.40625 -3.8125 "/></g></g></g><g fill="#000000" fill-opacity="1"><g transform="translate(405.749116, 279.722614)"><g><path d="M 0.703125 -1.609375 L 2.125 -1.609375 L 2.125 -6 L 0.703125 -6 L 0.703125 -7.609375 L 3.8125 -7.609375 L 3.8125 -1.609375 L 5.21875 -1.609375 L 5.21875 0 L 0.703125 0 Z M 1.953125 -10.546875 C 1.953125 -10.859375 2.054688 -11.113281 2.265625 -11.3125 C 2.484375 -11.519531 2.726562 -11.625 3 -11.625 C 3.257812 -11.625 3.492188 -11.519531 3.703125 -11.3125 C 3.921875 -11.113281 4.03125 -10.859375 4.03125 -10.546875 C 4.03125 -10.234375 3.921875 -9.976562 3.703125 -9.78125 C 3.492188 -9.582031 3.257812 -9.484375 3 -9.484375 C 2.726562 -9.484375 2.484375 -9.582031 2.265625 -9.78125 C 2.054688 -9.976562 1.953125 -10.234375 1.953125 -10.546875 Z M 1.953125 -10.546875 "/></g></g></g><g fill="#000000" fill-opacity="1"><g transform="translate(411.672395, 279.722614)"><g><path d="M 6.546875 -1.609375 L 8.109375 -1.609375 L 8.109375 -4.75 C 8.085938 -5.113281 7.957031 -5.425781 7.71875 -5.6875 C 7.476562 -5.945312 7.101562 -6.09375 6.59375 -6.125 C 6.238281 -6.125 5.898438 -6.0625 5.578125 -5.9375 C 5.265625 -5.820312 4.984375 -5.65625 4.734375 -5.4375 C 4.492188 -5.21875 4.300781 -4.957031 4.15625 -4.65625 C 4.007812 -4.363281 3.9375 -4.039062 3.9375 -3.6875 L 3.9375 -1.609375 L 5.21875 -1.609375 L 5.21875 0 L 0.703125 0 L 0.703125 -1.609375 L 2.25 -1.609375 L 2.25 -6 L 0.90625 -6 L 0.90625 -7.609375 L 3.734375 -7.609375 L 3.734375 -7.421875 C 3.753906 -7.097656 3.773438 -6.800781 3.796875 -6.53125 C 3.816406 -6.269531 3.84375 -5.976562 3.875 -5.65625 C 4.144531 -6.300781 4.578125 -6.816406 5.171875 -7.203125 C 5.773438 -7.585938 6.441406 -7.78125 7.171875 -7.78125 C 7.972656 -7.78125 8.601562 -7.570312 9.0625 -7.15625 C 9.519531 -6.738281 9.765625 -6.191406 9.796875 -5.515625 L 9.796875 -1.609375 L 11.046875 -1.609375 L 11.046875 0 L 6.546875 0 Z M 6.546875 -1.609375 "/></g></g></g><g fill="#000000" fill-opacity="1"><g transform="translate(423.437802, 279.722614)"><g/></g></g><g fill="#000000" fill-opacity="1"><g transform="translate(429.523358, 279.722614)"><g><path d="M 2.40625 -12.546875 L 4.09375 -12.546875 L 4.09375 -7.609375 L 6.078125 -7.609375 L 6.078125 -5.96875 L 4.09375 -5.96875 L 4.09375 -1.609375 L 5.625 -1.609375 L 5.625 0 L 2.40625 0 L 2.40625 -5.96875 L 0.703125 -5.96875 L 0.703125 -7.609375 L 2.40625 -7.609375 Z M 2.40625 -12.546875 "/></g></g></g><g fill="#000000" fill-opacity="1"><g transform="translate(436.318893, 279.722614)"><g><path d="M 0.703125 -3.8125 C 0.703125 -4.351562 0.804688 -4.863281 1.015625 -5.34375 C 1.234375 -5.832031 1.523438 -6.253906 1.890625 -6.609375 C 2.253906 -6.972656 2.679688 -7.257812 3.171875 -7.46875 C 3.671875 -7.675781 4.203125 -7.78125 4.765625 -7.78125 C 5.335938 -7.78125 5.875 -7.675781 6.375 -7.46875 C 6.875 -7.257812 7.304688 -6.972656 7.671875 -6.609375 C 8.035156 -6.253906 8.320312 -5.832031 8.53125 -5.34375 C 8.738281 -4.863281 8.84375 -4.351562 8.84375 -3.8125 C 8.84375 -3.257812 8.738281 -2.742188 8.53125 -2.265625 C 8.320312 -1.785156 8.035156 -1.363281 7.671875 -1 C 7.304688 -0.632812 6.875 -0.34375 6.375 -0.125 C 5.875 0.0820312 5.335938 0.1875 4.765625 0.1875 C 4.203125 0.1875 3.671875 0.0820312 3.171875 -0.125 C 2.679688 -0.34375 2.253906 -0.632812 1.890625 -1 C 1.523438 -1.363281 1.234375 -1.785156 1.015625 -2.265625 C 0.804688 -2.742188 0.703125 -3.257812 0.703125 -3.8125 Z M 2.390625 -3.796875 C 2.390625 -3.472656 2.453125 -3.164062 2.578125 -2.875 C 2.703125 -2.59375 2.867188 -2.347656 3.078125 -2.140625 C 3.285156 -1.929688 3.53125 -1.765625 3.8125 -1.640625 C 4.09375 -1.515625 4.394531 -1.453125 4.71875 -1.453125 C 5.050781 -1.453125 5.359375 -1.515625 5.640625 -1.640625 C 5.921875 -1.765625 6.171875 -1.929688 6.390625 -2.140625 C 6.609375 -2.347656 6.773438 -2.59375 6.890625 -2.875 C 7.015625 -3.164062 7.078125 -3.472656 7.078125 -3.796875 C 7.078125 -4.117188 7.015625 -4.421875 6.890625 -4.703125 C 6.773438 -4.984375 6.609375 -5.234375 6.390625 -5.453125 C 6.171875 -5.671875 5.921875 -5.835938 5.640625 -5.953125 C 5.359375 -6.078125 5.050781 -6.140625 4.71875 -6.140625 C 4.394531 -6.140625 4.09375 -6.078125 3.8125 -5.953125 C 3.53125 -5.835938 3.285156 -5.671875 3.078125 -5.453125 C 2.867188 -5.234375 2.703125 -4.984375 2.578125 -4.703125 C 2.453125 -4.421875 2.390625 -4.117188 2.390625 -3.796875 Z M 2.390625 -3.796875 "/></g></g></g><g fill="#000000" fill-opacity="1"><g transform="translate(445.873222, 279.722614)"><g/></g></g><g fill="#000000" fill-opacity="1"><g transform="translate(451.958777, 279.722614)"><g><path d="M 10.046875 -14.203125 L 14.953125 -14.203125 L 14.953125 -12.59375 L 13.34375 -12.59375 L 13.34375 -1.609375 L 14.953125 -1.609375 L 14.953125 0 L 10.046875 0 L 10.046875 -1.609375 L 11.65625 -1.609375 L 11.65625 -6.34375 L 4 -6.34375 L 4 -1.609375 L 5.625 -1.609375 L 5.625 0 L 0.703125 0 L 0.703125 -1.609375 L 2.3125 -1.609375 L 2.3125 -12.59375 L 0.703125 -12.59375 L 0.703125 -14.203125 L 5.625 -14.203125 L 5.625 -12.59375 L 4 -12.59375 L 4 -7.953125 L 11.65625 -7.953125 L 11.65625 -12.59375 L 10.046875 -12.59375 Z M 10.046875 -14.203125 "/></g></g></g><g fill="#000000" fill-opacity="1"><g transform="translate(467.618941, 279.722614)"><g><path d="M 4.765625 -6.140625 C 4.078125 -6.140625 3.515625 -5.929688 3.078125 -5.515625 C 2.648438 -5.109375 2.421875 -4.59375 2.390625 -3.96875 C 3.023438 -4.195312 3.65625 -4.429688 4.28125 -4.671875 C 4.914062 -4.910156 5.550781 -5.144531 6.1875 -5.375 C 6 -5.601562 5.785156 -5.785156 5.546875 -5.921875 C 5.304688 -6.066406 5.046875 -6.140625 4.765625 -6.140625 Z M 8.328125 -4.421875 C 7.410156 -4.085938 6.492188 -3.75 5.578125 -3.40625 C 4.671875 -3.070312 3.757812 -2.734375 2.84375 -2.390625 C 3.039062 -2.109375 3.304688 -1.878906 3.640625 -1.703125 C 3.972656 -1.535156 4.347656 -1.453125 4.765625 -1.453125 C 5.390625 -1.453125 5.90625 -1.671875 6.3125 -2.109375 L 7.34375 -0.890625 C 7 -0.554688 6.609375 -0.289062 6.171875 -0.09375 C 5.742188 0.09375 5.273438 0.1875 4.765625 0.1875 C 4.203125 0.1875 3.671875 0.0820312 3.171875 -0.125 C 2.679688 -0.34375 2.253906 -0.632812 1.890625 -1 C 1.523438 -1.363281 1.234375 -1.785156 1.015625 -2.265625 C 0.804688 -2.742188 0.703125 -3.257812 0.703125 -3.8125 C 0.703125 -4.351562 0.804688 -4.863281 1.015625 -5.34375 C 1.234375 -5.832031 1.523438 -6.253906 1.890625 -6.609375 C 2.253906 -6.972656 2.679688 -7.257812 3.171875 -7.46875 C 3.671875 -7.675781 4.203125 -7.78125 4.765625 -7.78125 C 5.179688 -7.78125 5.582031 -7.695312 5.96875 -7.53125 C 6.351562 -7.363281 6.695312 -7.128906 7 -6.828125 C 7.3125 -6.535156 7.582031 -6.179688 7.8125 -5.765625 C 8.039062 -5.359375 8.210938 -4.910156 8.328125 -4.421875 Z M 8.328125 -4.421875 "/></g></g></g><g fill="#000000" fill-opacity="1"><g transform="translate(476.747275, 279.722614)"><g><path d="M 0.703125 -3.796875 C 0.703125 -4.316406 0.804688 -4.820312 1.015625 -5.3125 C 1.234375 -5.800781 1.523438 -6.226562 1.890625 -6.59375 C 2.253906 -6.957031 2.6875 -7.242188 3.1875 -7.453125 C 3.6875 -7.671875 4.21875 -7.78125 4.78125 -7.78125 C 5.144531 -7.78125 5.484375 -7.726562 5.796875 -7.625 C 6.109375 -7.519531 6.378906 -7.398438 6.609375 -7.265625 C 6.835938 -7.140625 7.019531 -7.015625 7.15625 -6.890625 C 7.289062 -6.773438 7.359375 -6.695312 7.359375 -6.65625 C 7.359375 -6.800781 7.367188 -6.953125 7.390625 -7.109375 C 7.421875 -7.273438 7.4375 -7.441406 7.4375 -7.609375 L 8.84375 -7.609375 L 8.84375 -1.609375 L 10.390625 -1.609375 L 10.390625 0 L 7.359375 0 L 7.359375 -0.8125 C 7.347656 -0.769531 7.28125 -0.691406 7.15625 -0.578125 C 7.039062 -0.472656 6.867188 -0.363281 6.640625 -0.25 C 6.421875 -0.132812 6.15625 -0.0351562 5.84375 0.046875 C 5.53125 0.140625 5.175781 0.1875 4.78125 0.1875 C 4.21875 0.1875 3.6875 0.0820312 3.1875 -0.125 C 2.6875 -0.34375 2.253906 -0.632812 1.890625 -1 C 1.523438 -1.363281 1.234375 -1.785156 1.015625 -2.265625 C 0.804688 -2.742188 0.703125 -3.253906 0.703125 -3.796875 Z M 2.40625 -3.8125 C 2.40625 -3.144531 2.625 -2.582031 3.0625 -2.125 C 3.507812 -1.675781 4.082031 -1.453125 4.78125 -1.453125 C 5.488281 -1.453125 6.0625 -1.675781 6.5 -2.125 C 6.9375 -2.582031 7.15625 -3.144531 7.15625 -3.8125 C 7.15625 -4.488281 6.9375 -5.046875 6.5 -5.484375 C 6.0625 -5.921875 5.488281 -6.140625 4.78125 -6.140625 C 4.082031 -6.140625 3.507812 -5.921875 3.0625 -5.484375 C 2.625 -5.046875 2.40625 -4.488281 2.40625 -3.8125 Z M 2.40625 -3.8125 "/></g></g></g><g fill="#000000" fill-opacity="1"><g transform="translate(487.843271, 279.722614)"><g><path d="M 0.703125 -7.609375 L 5.21875 -7.609375 L 5.21875 -6 L 4.15625 -6 C 4.507812 -5.40625 4.847656 -4.8125 5.171875 -4.21875 C 5.492188 -3.625 5.75 -3.03125 5.9375 -2.4375 C 6.125 -3.03125 6.375 -3.625 6.6875 -4.21875 C 7.007812 -4.8125 7.347656 -5.40625 7.703125 -6 L 6.484375 -6 L 6.484375 -7.609375 L 11.140625 -7.609375 L 11.140625 -6 L 9.453125 -6 C 8.867188 -4.90625 8.28125 -3.820312 7.6875 -2.75 C 7.101562 -1.6875 6.519531 -0.613281 5.9375 0.46875 C 5.34375 -0.613281 4.753906 -1.691406 4.171875 -2.765625 C 3.597656 -3.835938 3.007812 -4.914062 2.40625 -6 L 0.703125 -6 Z M 0.703125 -7.609375 "/></g></g></g><g fill="#000000" fill-opacity="1"><g transform="translate(499.689817, 279.722614)"><g><path d="M 4.765625 -6.140625 C 4.078125 -6.140625 3.515625 -5.929688 3.078125 -5.515625 C 2.648438 -5.109375 2.421875 -4.59375 2.390625 -3.96875 C 3.023438 -4.195312 3.65625 -4.429688 4.28125 -4.671875 C 4.914062 -4.910156 5.550781 -5.144531 6.1875 -5.375 C 6 -5.601562 5.785156 -5.785156 5.546875 -5.921875 C 5.304688 -6.066406 5.046875 -6.140625 4.765625 -6.140625 Z M 8.328125 -4.421875 C 7.410156 -4.085938 6.492188 -3.75 5.578125 -3.40625 C 4.671875 -3.070312 3.757812 -2.734375 2.84375 -2.390625 C 3.039062 -2.109375 3.304688 -1.878906 3.640625 -1.703125 C 3.972656 -1.535156 4.347656 -1.453125 4.765625 -1.453125 C 5.390625 -1.453125 5.90625 -1.671875 6.3125 -2.109375 L 7.34375 -0.890625 C 7 -0.554688 6.609375 -0.289062 6.171875 -0.09375 C 5.742188 0.09375 5.273438 0.1875 4.765625 0.1875 C 4.203125 0.1875 3.671875 0.0820312 3.171875 -0.125 C 2.679688 -0.34375 2.253906 -0.632812 1.890625 -1 C 1.523438 -1.363281 1.234375 -1.785156 1.015625 -2.265625 C 0.804688 -2.742188 0.703125 -3.257812 0.703125 -3.8125 C 0.703125 -4.351562 0.804688 -4.863281 1.015625 -5.34375 C 1.234375 -5.832031 1.523438 -6.253906 1.890625 -6.609375 C 2.253906 -6.972656 2.679688 -7.257812 3.171875 -7.46875 C 3.671875 -7.675781 4.203125 -7.78125 4.765625 -7.78125 C 5.179688 -7.78125 5.582031 -7.695312 5.96875 -7.53125 C 6.351562 -7.363281 6.695312 -7.128906 7 -6.828125 C 7.3125 -6.535156 7.582031 -6.179688 7.8125 -5.765625 C 8.039062 -5.359375 8.210938 -4.910156 8.328125 -4.421875 Z M 8.328125 -4.421875 "/></g></g></g><g fill="#000000" fill-opacity="1"><g transform="translate(508.818151, 279.722614)"><g><path d="M 6.546875 -1.609375 L 8.109375 -1.609375 L 8.109375 -4.75 C 8.085938 -5.113281 7.957031 -5.425781 7.71875 -5.6875 C 7.476562 -5.945312 7.101562 -6.09375 6.59375 -6.125 C 6.238281 -6.125 5.898438 -6.0625 5.578125 -5.9375 C 5.265625 -5.820312 4.984375 -5.65625 4.734375 -5.4375 C 4.492188 -5.21875 4.300781 -4.957031 4.15625 -4.65625 C 4.007812 -4.363281 3.9375 -4.039062 3.9375 -3.6875 L 3.9375 -1.609375 L 5.21875 -1.609375 L 5.21875 0 L 0.703125 0 L 0.703125 -1.609375 L 2.25 -1.609375 L 2.25 -6 L 0.90625 -6 L 0.90625 -7.609375 L 3.734375 -7.609375 L 3.734375 -7.421875 C 3.753906 -7.097656 3.773438 -6.800781 3.796875 -6.53125 C 3.816406 -6.269531 3.84375 -5.976562 3.875 -5.65625 C 4.144531 -6.300781 4.578125 -6.816406 5.171875 -7.203125 C 5.773438 -7.585938 6.441406 -7.78125 7.171875 -7.78125 C 7.972656 -7.78125 8.601562 -7.570312 9.0625 -7.15625 C 9.519531 -6.738281 9.765625 -6.191406 9.796875 -5.515625 L 9.796875 -1.609375 L 11.046875 -1.609375 L 11.046875 0 L 6.546875 0 Z M 6.546875 -1.609375 "/></g></g></g><g fill="#000000" fill-opacity="1"><g transform="translate(520.583558, 279.722614)"><g><path d="M 0.703125 -1.609375 L 2.25 -1.609375 L 2.25 -13.609375 L 0.90625 -13.609375 L 0.90625 -15.21875 L 3.9375 -15.21875 L 3.9375 -1.609375 L 5.21875 -1.609375 L 5.21875 0 L 0.703125 0 Z M 0.703125 -1.609375 "/></g></g></g><g fill="#000000" fill-opacity="1"><g transform="translate(526.506836, 279.722614)"><g><path d="M 1.859375 3.46875 L 3.6875 3.46875 C 3.96875 2.882812 4.253906 2.300781 4.546875 1.71875 C 4.835938 1.144531 5.132812 0.570312 5.4375 0 C 4.925781 -1.007812 4.421875 -2.007812 3.921875 -3 C 3.429688 -3.988281 2.925781 -4.988281 2.40625 -6 L 0.703125 -6 L 0.703125 -7.609375 L 5.21875 -7.609375 L 5.21875 -6 L 4.140625 -6 C 4.523438 -5.257812 4.914062 -4.515625 5.3125 -3.765625 C 5.707031 -3.015625 6.03125 -2.257812 6.28125 -1.5 C 6.539062 -2.257812 6.863281 -3.015625 7.25 -3.765625 C 7.632812 -4.515625 8.023438 -5.257812 8.421875 -6 L 7.15625 -6 L 7.15625 -7.609375 L 11.796875 -7.609375 L 11.796875 -6 L 10.140625 -6 C 9.335938 -4.40625 8.539062 -2.828125 7.75 -1.265625 C 6.96875 0.296875 6.175781 1.875 5.375 3.46875 L 6.375 3.46875 L 6.375 5.078125 L 1.859375 5.078125 Z M 1.859375 3.46875 "/></g></g></g><g fill="#000000" fill-opacity="1"><g transform="translate(539.022793, 279.722614)"><g><path d="M 0.703125 -1.609375 L 1.84375 -1.609375 L 1.84375 -12.59375 L 0.703125 -12.59375 L 0.703125 -14.203125 L 5.21875 -14.203125 L 5.21875 -12.59375 L 3.53125 -12.59375 L 3.53125 -1.609375 L 9.265625 -1.609375 L 9.265625 -3.125 L 10.875 -3.125 L 10.875 0 L 0.703125 0 Z M 0.703125 -1.609375 "/></g></g></g><g fill="#000000" fill-opacity="1"><g transform="translate(550.605632, 279.722614)"><g><path d="M 0.703125 -3.8125 C 0.703125 -4.351562 0.804688 -4.863281 1.015625 -5.34375 C 1.234375 -5.832031 1.523438 -6.253906 1.890625 -6.609375 C 2.253906 -6.972656 2.679688 -7.257812 3.171875 -7.46875 C 3.671875 -7.675781 4.203125 -7.78125 4.765625 -7.78125 C 5.335938 -7.78125 5.875 -7.675781 6.375 -7.46875 C 6.875 -7.257812 7.304688 -6.972656 7.671875 -6.609375 C 8.035156 -6.253906 8.320312 -5.832031 8.53125 -5.34375 C 8.738281 -4.863281 8.84375 -4.351562 8.84375 -3.8125 C 8.84375 -3.257812 8.738281 -2.742188 8.53125 -2.265625 C 8.320312 -1.785156 8.035156 -1.363281 7.671875 -1 C 7.304688 -0.632812 6.875 -0.34375 6.375 -0.125 C 5.875 0.0820312 5.335938 0.1875 4.765625 0.1875 C 4.203125 0.1875 3.671875 0.0820312 3.171875 -0.125 C 2.679688 -0.34375 2.253906 -0.632812 1.890625 -1 C 1.523438 -1.363281 1.234375 -1.785156 1.015625 -2.265625 C 0.804688 -2.742188 0.703125 -3.257812 0.703125 -3.8125 Z M 2.390625 -3.796875 C 2.390625 -3.472656 2.453125 -3.164062 2.578125 -2.875 C 2.703125 -2.59375 2.867188 -2.347656 3.078125 -2.140625 C 3.285156 -1.929688 3.53125 -1.765625 3.8125 -1.640625 C 4.09375 -1.515625 4.394531 -1.453125 4.71875 -1.453125 C 5.050781 -1.453125 5.359375 -1.515625 5.640625 -1.640625 C 5.921875 -1.765625 6.171875 -1.929688 6.390625 -2.140625 C 6.609375 -2.347656 6.773438 -2.59375 6.890625 -2.875 C 7.015625 -3.164062 7.078125 -3.472656 7.078125 -3.796875 C 7.078125 -4.117188 7.015625 -4.421875 6.890625 -4.703125 C 6.773438 -4.984375 6.609375 -5.234375 6.390625 -5.453125 C 6.171875 -5.671875 5.921875 -5.835938 5.640625 -5.953125 C 5.359375 -6.078125 5.050781 -6.140625 4.71875 -6.140625 C 4.394531 -6.140625 4.09375 -6.078125 3.8125 -5.953125 C 3.53125 -5.835938 3.285156 -5.671875 3.078125 -5.453125 C 2.867188 -5.234375 2.703125 -4.984375 2.578125 -4.703125 C 2.453125 -4.421875 2.390625 -4.117188 2.390625 -3.796875 Z M 2.390625 -3.796875 "/></g></g></g><g fill="#000000" fill-opacity="1"><g transform="translate(560.15996, 279.722614)"><g><path d="M 7.4375 -7.609375 L 10.390625 -7.609375 L 10.390625 -6 L 8.84375 -6 L 8.84375 1.21875 C 8.84375 1.757812 8.738281 2.257812 8.53125 2.71875 C 8.320312 3.1875 8.035156 3.59375 7.671875 3.9375 C 7.304688 4.289062 6.878906 4.566406 6.390625 4.765625 C 5.898438 4.972656 5.375 5.078125 4.8125 5.078125 C 4.195312 5.078125 3.601562 4.941406 3.03125 4.671875 C 2.46875 4.410156 1.984375 4.140625 1.578125 3.859375 L 2.703125 2.46875 C 2.972656 2.675781 3.285156 2.867188 3.640625 3.046875 C 3.992188 3.234375 4.367188 3.328125 4.765625 3.328125 C 5.117188 3.328125 5.441406 3.265625 5.734375 3.140625 C 6.023438 3.023438 6.273438 2.859375 6.484375 2.640625 C 6.703125 2.429688 6.867188 2.179688 6.984375 1.890625 C 7.097656 1.597656 7.15625 1.285156 7.15625 0.953125 L 7.15625 -0.40625 C 7.1875 -0.457031 7.210938 -0.515625 7.234375 -0.578125 C 7.265625 -0.640625 7.296875 -0.703125 7.328125 -0.765625 C 7.285156 -0.703125 7.195312 -0.617188 7.0625 -0.515625 C 6.925781 -0.410156 6.75 -0.304688 6.53125 -0.203125 C 6.3125 -0.109375 6.054688 -0.0234375 5.765625 0.046875 C 5.472656 0.117188 5.144531 0.15625 4.78125 0.15625 C 4.21875 0.15625 3.6875 0.0507812 3.1875 -0.15625 C 2.6875 -0.363281 2.253906 -0.644531 1.890625 -1 C 1.523438 -1.363281 1.234375 -1.785156 1.015625 -2.265625 C 0.804688 -2.742188 0.703125 -3.253906 0.703125 -3.796875 C 0.703125 -4.316406 0.804688 -4.820312 1.015625 -5.3125 C 1.234375 -5.800781 1.523438 -6.226562 1.890625 -6.59375 C 2.253906 -6.957031 2.6875 -7.242188 3.1875 -7.453125 C 3.6875 -7.671875 4.21875 -7.78125 4.78125 -7.78125 C 5.144531 -7.78125 5.484375 -7.726562 5.796875 -7.625 C 6.109375 -7.519531 6.378906 -7.398438 6.609375 -7.265625 C 6.835938 -7.140625 7.019531 -7.015625 7.15625 -6.890625 C 7.289062 -6.773438 7.359375 -6.695312 7.359375 -6.65625 C 7.359375 -6.800781 7.367188 -6.953125 7.390625 -7.109375 C 7.421875 -7.273438 7.4375 -7.441406 7.4375 -7.609375 Z M 2.40625 -3.8125 C 2.40625 -3.144531 2.625 -2.582031 3.0625 -2.125 C 3.507812 -1.675781 4.082031 -1.453125 4.78125 -1.453125 C 5.488281 -1.453125 6.0625 -1.675781 6.5 -2.125 C 6.9375 -2.582031 7.15625 -3.144531 7.15625 -3.8125 C 7.15625 -4.488281 6.9375 -5.046875 6.5 -5.484375 C 6.0625 -5.921875 5.488281 -6.140625 4.78125 -6.140625 C 4.082031 -6.140625 3.507812 -5.921875 3.0625 -5.484375 C 2.625 -5.046875 2.40625 -4.488281 2.40625 -3.8125 Z M 2.40625 -3.8125 "/></g></g></g><g fill="#000000" fill-opacity="1"><g transform="translate(571.255957, 279.722614)"><g><path d="M 2.453125 -2.4375 L 2.453125 -1.640625 C 2.617188 -1.578125 2.773438 -1.535156 2.921875 -1.515625 C 3.078125 -1.492188 3.273438 -1.484375 3.515625 -1.484375 C 3.523438 -1.484375 3.570312 -1.484375 3.65625 -1.484375 C 3.75 -1.492188 3.847656 -1.519531 3.953125 -1.5625 C 4.054688 -1.613281 4.148438 -1.6875 4.234375 -1.78125 C 4.328125 -1.875 4.382812 -2.015625 4.40625 -2.203125 C 4.414062 -2.453125 4.34375 -2.640625 4.1875 -2.765625 C 4.039062 -2.898438 3.847656 -3.007812 3.609375 -3.09375 C 3.378906 -3.175781 3.117188 -3.257812 2.828125 -3.34375 C 2.546875 -3.4375 2.28125 -3.5625 2.03125 -3.71875 C 1.78125 -3.875 1.570312 -4.09375 1.40625 -4.375 C 1.25 -4.664062 1.171875 -5.046875 1.171875 -5.515625 C 1.171875 -5.929688 1.25 -6.28125 1.40625 -6.5625 C 1.570312 -6.851562 1.773438 -7.085938 2.015625 -7.265625 C 2.265625 -7.453125 2.53125 -7.582031 2.8125 -7.65625 C 3.101562 -7.738281 3.363281 -7.78125 3.59375 -7.78125 C 3.726562 -7.78125 3.890625 -7.765625 4.078125 -7.734375 C 4.273438 -7.710938 4.472656 -7.664062 4.671875 -7.59375 C 4.878906 -7.53125 5.082031 -7.441406 5.28125 -7.328125 C 5.476562 -7.222656 5.648438 -7.09375 5.796875 -6.9375 L 5.796875 -5.171875 L 4.296875 -5.171875 L 4.296875 -6.046875 C 4.097656 -6.109375 3.894531 -6.140625 3.6875 -6.140625 C 3.394531 -6.140625 3.179688 -6.078125 3.046875 -5.953125 C 2.910156 -5.828125 2.851562 -5.65625 2.875 -5.4375 C 2.90625 -5.269531 3.007812 -5.132812 3.1875 -5.03125 C 3.363281 -4.9375 3.566406 -4.84375 3.796875 -4.75 C 4.035156 -4.65625 4.289062 -4.546875 4.5625 -4.421875 C 4.832031 -4.296875 5.082031 -4.140625 5.3125 -3.953125 C 5.539062 -3.773438 5.726562 -3.546875 5.875 -3.265625 C 6.03125 -2.992188 6.109375 -2.648438 6.109375 -2.234375 C 6.109375 -2.046875 6.066406 -1.816406 5.984375 -1.546875 C 5.910156 -1.273438 5.78125 -1.007812 5.59375 -0.75 C 5.40625 -0.488281 5.140625 -0.269531 4.796875 -0.09375 C 4.460938 0.0703125 4.023438 0.15625 3.484375 0.15625 C 2.984375 0.15625 2.503906 0.09375 2.046875 -0.03125 C 1.585938 -0.15625 1.222656 -0.367188 0.953125 -0.671875 L 0.953125 -2.4375 Z M 2.453125 -2.4375 "/></g></g></g></svg>