<svg xmlns="http://www.w3.org/2000/svg" xmlns:xlink="http://www.w3.org/1999/xlink" zoomAndPan="magnify" preserveAspectRatio="xMidYMid meet" version="1.0" viewBox="399.78 190.28 160.52 219.72"><defs><clipPath id="812d2aaafd"><path d="M 399.800781 190.285156 L 560.300781 190.285156 L 560.300781 410 L 399.800781 410 Z M 399.800781 190.285156 " clip-rule="nonzero"/></clipPath></defs><path fill="#a67d52" d="M 559.082031 206.917969 L 559.082031 393.367188 C 559.078125 394.378906 558.980469 395.378906 558.78125 396.371094 C 558.585938 397.363281 558.292969 398.328125 557.90625 399.261719 C 557.519531 400.195312 557.042969 401.082031 556.480469 401.925781 C 555.921875 402.765625 555.28125 403.542969 554.566406 404.257812 C 553.851562 404.972656 553.074219 405.613281 552.234375 406.175781 C 551.394531 406.738281 550.507812 407.210938 549.574219 407.597656 C 548.640625 407.988281 547.679688 408.28125 546.6875 408.476562 C 545.695312 408.675781 544.695312 408.773438 543.683594 408.777344 L 416.417969 408.777344 C 415.40625 408.777344 414.40625 408.675781 413.414062 408.480469 C 412.421875 408.28125 411.460938 407.988281 410.523438 407.601562 C 409.589844 407.214844 408.703125 406.742188 407.863281 406.179688 C 407.023438 405.617188 406.246094 404.976562 405.53125 404.261719 C 404.816406 403.546875 404.175781 402.769531 403.617188 401.925781 C 403.054688 401.085938 402.578125 400.199219 402.191406 399.261719 C 401.804688 398.328125 401.515625 397.363281 401.316406 396.371094 C 401.121094 395.378906 401.019531 394.378906 401.019531 393.367188 L 401.019531 206.917969 C 401.019531 205.90625 401.121094 204.902344 401.316406 203.910156 C 401.515625 202.917969 401.804688 201.957031 402.191406 201.019531 C 402.578125 200.085938 403.054688 199.199219 403.617188 198.355469 C 404.175781 197.515625 404.816406 196.738281 405.53125 196.023438 C 406.246094 195.304688 407.023438 194.667969 407.863281 194.105469 C 408.703125 193.542969 409.589844 193.070312 410.523438 192.679688 C 411.460938 192.292969 412.421875 192 413.414062 191.804688 C 414.40625 191.605469 415.40625 191.507812 416.417969 191.507812 L 543.683594 191.507812 C 544.695312 191.507812 545.695312 191.605469 546.6875 191.804688 C 547.679688 192 548.640625 192.292969 549.574219 192.679688 C 550.511719 193.070312 551.398438 193.542969 552.238281 194.105469 C 553.078125 194.667969 553.855469 195.304688 554.570312 196.023438 C 555.285156 196.738281 555.925781 197.515625 556.484375 198.355469 C 557.046875 199.199219 557.523438 200.085938 557.910156 201.019531 C 558.296875 201.957031 558.585938 202.917969 558.785156 203.910156 C 558.980469 204.902344 559.082031 205.90625 559.082031 206.917969 Z M 559.082031 206.917969 " fill-opacity="1" fill-rule="nonzero"/><path fill="#cf9769" d="M 559.082031 206.917969 L 559.082031 393.367188 C 559.082031 394.226562 559.007812 395.078125 558.863281 395.925781 L 490.636719 395.925781 C 488.628906 395.925781 486.625 395.824219 484.625 395.628906 C 482.625 395.429688 480.636719 395.136719 478.667969 394.742188 C 476.695312 394.351562 474.746094 393.863281 472.824219 393.277344 C 470.902344 392.695312 469.011719 392.015625 467.152344 391.246094 C 465.296875 390.476562 463.480469 389.617188 461.710938 388.667969 C 459.9375 387.722656 458.214844 386.6875 456.542969 385.570312 C 454.871094 384.453125 453.261719 383.257812 451.707031 381.980469 C 450.152344 380.703125 448.664062 379.355469 447.246094 377.929688 C 445.824219 376.507812 444.476562 375.019531 443.199219 373.464844 C 441.925781 371.910156 440.730469 370.296875 439.613281 368.625 C 438.496094 366.949219 437.464844 365.226562 436.515625 363.453125 C 435.570312 361.679688 434.710938 359.863281 433.941406 358.003906 C 433.171875 356.144531 432.496094 354.253906 431.914062 352.328125 C 431.332031 350.402344 430.84375 348.453125 430.449219 346.480469 C 430.058594 344.507812 429.765625 342.523438 429.566406 340.519531 C 429.371094 338.519531 429.273438 336.511719 429.273438 334.5 L 429.273438 194.058594 C 429.273438 193.203125 429.339844 192.351562 429.480469 191.507812 L 543.683594 191.507812 C 544.695312 191.507812 545.695312 191.605469 546.6875 191.804688 C 547.679688 192 548.640625 192.292969 549.574219 192.679688 C 550.511719 193.070312 551.398438 193.542969 552.238281 194.105469 C 553.078125 194.667969 553.855469 195.304688 554.570312 196.023438 C 555.285156 196.738281 555.925781 197.515625 556.484375 198.355469 C 557.046875 199.199219 557.523438 200.085938 557.910156 201.019531 C 558.296875 201.957031 558.585938 202.917969 558.785156 203.910156 C 558.980469 204.902344 559.082031 205.90625 559.082031 206.917969 Z M 559.082031 206.917969 " fill-opacity="1" fill-rule="nonzero"/><path fill="#f2f2f2" d="M 516.71875 372.628906 L 456.671875 372.628906 C 456.671875 372.058594 456.640625 371.488281 456.585938 370.917969 C 456.53125 370.347656 456.445312 369.78125 456.335938 369.222656 C 456.222656 368.660156 456.085938 368.105469 455.917969 367.558594 C 455.753906 367.011719 455.558594 366.472656 455.339844 365.945312 C 455.121094 365.414062 454.878906 364.898438 454.609375 364.394531 C 454.339844 363.890625 454.046875 363.398438 453.726562 362.921875 C 453.410156 362.445312 453.070312 361.988281 452.707031 361.546875 C 452.34375 361.101562 451.960938 360.679688 451.558594 360.273438 C 451.152344 359.871094 450.730469 359.488281 450.289062 359.125 C 449.84375 358.761719 449.386719 358.421875 448.910156 358.101562 C 448.4375 357.785156 447.945312 357.492188 447.441406 357.21875 C 446.9375 356.949219 446.421875 356.707031 445.894531 356.488281 C 445.363281 356.269531 444.828125 356.074219 444.28125 355.910156 C 443.734375 355.742188 443.179688 355.605469 442.617188 355.492188 C 442.058594 355.382812 441.492188 355.296875 440.921875 355.242188 C 440.355469 355.1875 439.785156 355.15625 439.210938 355.15625 L 439.210938 245.132812 C 439.785156 245.132812 440.355469 245.105469 440.921875 245.050781 C 441.492188 244.992188 442.058594 244.910156 442.617188 244.796875 C 443.179688 244.6875 443.734375 244.546875 444.28125 244.382812 C 444.828125 244.214844 445.363281 244.023438 445.894531 243.804688 C 446.421875 243.585938 446.9375 243.339844 447.441406 243.070312 C 447.945312 242.800781 448.4375 242.507812 448.910156 242.1875 C 449.386719 241.871094 449.84375 241.53125 450.289062 241.167969 C 450.730469 240.804688 451.152344 240.421875 451.558594 240.015625 C 451.960938 239.613281 452.34375 239.1875 452.707031 238.746094 C 453.070312 238.304688 453.410156 237.84375 453.726562 237.367188 C 454.046875 236.890625 454.339844 236.402344 454.609375 235.898438 C 454.878906 235.394531 455.121094 234.875 455.339844 234.347656 C 455.558594 233.820312 455.753906 233.28125 455.917969 232.734375 C 456.085938 232.1875 456.222656 231.632812 456.335938 231.070312 C 456.445312 230.507812 456.53125 229.941406 456.585938 229.375 C 456.640625 228.804688 456.671875 228.234375 456.671875 227.660156 L 516.71875 227.660156 C 516.71875 228.234375 516.746094 228.804688 516.800781 229.375 C 516.859375 229.941406 516.941406 230.507812 517.054688 231.070312 C 517.164062 231.632812 517.304688 232.1875 517.46875 232.734375 C 517.636719 233.28125 517.828125 233.820312 518.046875 234.347656 C 518.265625 234.875 518.507812 235.394531 518.777344 235.898438 C 519.046875 236.402344 519.34375 236.890625 519.660156 237.367188 C 519.976562 237.84375 520.316406 238.304688 520.679688 238.746094 C 521.042969 239.1875 521.425781 239.613281 521.832031 240.015625 C 522.234375 240.421875 522.65625 240.804688 523.101562 241.167969 C 523.542969 241.53125 524 241.871094 524.476562 242.1875 C 524.953125 242.507812 525.441406 242.800781 525.945312 243.070312 C 526.449219 243.339844 526.964844 243.585938 527.496094 243.804688 C 528.023438 244.023438 528.558594 244.214844 529.109375 244.382812 C 529.65625 244.546875 530.207031 244.6875 530.769531 244.796875 C 531.332031 244.910156 531.894531 244.992188 532.464844 245.050781 C 533.03125 245.105469 533.601562 245.132812 534.175781 245.132812 L 534.175781 355.148438 C 533.601562 355.148438 533.03125 355.179688 532.464844 355.234375 C 531.894531 355.289062 531.328125 355.375 530.769531 355.484375 C 530.207031 355.597656 529.652344 355.738281 529.105469 355.902344 C 528.558594 356.070312 528.019531 356.261719 527.492188 356.480469 C 526.964844 356.699219 526.449219 356.945312 525.945312 357.214844 C 525.4375 357.484375 524.949219 357.777344 524.472656 358.097656 C 524 358.414062 523.539062 358.753906 523.097656 359.117188 C 522.65625 359.480469 522.234375 359.867188 521.828125 360.269531 C 521.421875 360.675781 521.039062 361.097656 520.675781 361.542969 C 520.316406 361.984375 519.976562 362.441406 519.65625 362.917969 C 519.339844 363.394531 519.046875 363.886719 518.777344 364.390625 C 518.507812 364.894531 518.261719 365.414062 518.042969 365.941406 C 517.824219 366.46875 517.632812 367.007812 517.46875 367.554688 C 517.300781 368.105469 517.164062 368.660156 517.050781 369.21875 C 516.941406 369.78125 516.855469 370.347656 516.800781 370.917969 C 516.746094 371.488281 516.71875 372.058594 516.71875 372.628906 Z M 516.71875 372.628906 " fill-opacity="1" fill-rule="nonzero"/><path fill="#000000" d="M 516.300781 373.847656 L 457.085938 373.847656 L 457.085938 372.628906 C 457.085938 372.042969 457.054688 371.460938 457 370.875 C 456.941406 370.292969 456.855469 369.714844 456.738281 369.140625 C 456.625 368.566406 456.480469 367.996094 456.3125 367.4375 C 456.140625 366.875 455.945312 366.324219 455.71875 365.785156 C 455.496094 365.242188 455.246094 364.714844 454.96875 364.199219 C 454.691406 363.679688 454.390625 363.179688 454.066406 362.691406 C 453.742188 362.207031 453.390625 361.734375 453.019531 361.28125 C 452.648438 360.828125 452.257812 360.394531 451.84375 359.980469 C 451.429688 359.566406 450.996094 359.175781 450.542969 358.804688 C 450.089844 358.429688 449.621094 358.082031 449.132812 357.757812 C 448.648438 357.429688 448.144531 357.128906 447.628906 356.851562 C 447.113281 356.578125 446.585938 356.328125 446.042969 356.101562 C 445.503906 355.878906 444.953125 355.679688 444.394531 355.507812 C 443.832031 355.339844 443.265625 355.195312 442.691406 355.082031 C 442.117188 354.964844 441.539062 354.878906 440.957031 354.820312 C 440.375 354.765625 439.789062 354.734375 439.203125 354.734375 L 437.988281 354.734375 L 437.988281 245.550781 L 439.203125 245.550781 C 439.789062 245.550781 440.375 245.519531 440.957031 245.460938 C 441.539062 245.402344 442.117188 245.316406 442.691406 245.203125 C 443.265625 245.085938 443.832031 244.945312 444.394531 244.773438 C 444.953125 244.605469 445.503906 244.40625 446.042969 244.183594 C 446.585938 243.957031 447.113281 243.707031 447.628906 243.429688 C 448.144531 243.152344 448.648438 242.851562 449.132812 242.527344 C 449.621094 242.203125 450.089844 241.851562 450.542969 241.480469 C 450.996094 241.109375 451.429688 240.714844 451.84375 240.300781 C 452.257812 239.886719 452.648438 239.453125 453.019531 239 C 453.390625 238.546875 453.742188 238.078125 454.066406 237.589844 C 454.390625 237.105469 454.691406 236.601562 454.96875 236.085938 C 455.246094 235.570312 455.496094 235.039062 455.71875 234.5 C 455.945312 233.957031 456.140625 233.40625 456.3125 232.847656 C 456.480469 232.285156 456.625 231.71875 456.738281 231.144531 C 456.855469 230.570312 456.941406 229.992188 457 229.40625 C 457.054688 228.824219 457.085938 228.238281 457.085938 227.652344 L 457.085938 226.433594 L 516.300781 226.433594 L 516.300781 227.652344 C 516.300781 228.238281 516.332031 228.824219 516.390625 229.40625 C 516.445312 229.988281 516.535156 230.570312 516.648438 231.144531 C 516.761719 231.71875 516.90625 232.285156 517.074219 232.847656 C 517.246094 233.40625 517.441406 233.957031 517.667969 234.5 C 517.890625 235.039062 518.140625 235.570312 518.417969 236.085938 C 518.695312 236.601562 518.996094 237.105469 519.320312 237.589844 C 519.644531 238.078125 519.992188 238.546875 520.363281 239 C 520.738281 239.453125 521.128906 239.886719 521.542969 240.300781 C 521.957031 240.714844 522.390625 241.109375 522.84375 241.480469 C 523.292969 241.851562 523.765625 242.203125 524.25 242.527344 C 524.738281 242.851562 525.238281 243.152344 525.753906 243.429688 C 526.269531 243.707031 526.800781 243.957031 527.339844 244.183594 C 527.878906 244.40625 528.429688 244.605469 528.992188 244.773438 C 529.550781 244.945312 530.117188 245.085938 530.691406 245.203125 C 531.265625 245.316406 531.84375 245.402344 532.425781 245.460938 C 533.007812 245.519531 533.59375 245.550781 534.179688 245.550781 L 535.398438 245.550781 L 535.398438 354.734375 L 534.179688 354.734375 C 533.59375 354.734375 533.007812 354.765625 532.425781 354.820312 C 531.84375 354.878906 531.265625 354.964844 530.691406 355.082031 C 530.117188 355.195312 529.550781 355.339844 528.992188 355.507812 C 528.429688 355.679688 527.878906 355.878906 527.339844 356.101562 C 526.800781 356.328125 526.269531 356.578125 525.753906 356.855469 C 525.238281 357.128906 524.738281 357.429688 524.25 357.757812 C 523.765625 358.082031 523.292969 358.429688 522.84375 358.804688 C 522.390625 359.175781 521.957031 359.566406 521.542969 359.980469 C 521.128906 360.394531 520.738281 360.828125 520.363281 361.28125 C 519.992188 361.734375 519.644531 362.207031 519.320312 362.691406 C 518.996094 363.179688 518.695312 363.683594 518.417969 364.199219 C 518.140625 364.714844 517.890625 365.242188 517.667969 365.785156 C 517.441406 366.328125 517.246094 366.878906 517.074219 367.4375 C 516.90625 368 516.761719 368.566406 516.648438 369.140625 C 516.535156 369.714844 516.445312 370.292969 516.390625 370.875 C 516.332031 371.460938 516.300781 372.042969 516.300781 372.628906 Z M 459.472656 371.410156 L 513.898438 371.410156 C 513.972656 370.179688 514.160156 368.96875 514.457031 367.773438 C 514.75 366.574219 515.152344 365.417969 515.65625 364.292969 C 516.164062 363.167969 516.765625 362.101562 517.464844 361.085938 C 518.164062 360.074219 518.949219 359.128906 519.820312 358.257812 C 520.691406 357.386719 521.632812 356.601562 522.644531 355.902344 C 523.660156 355.203125 524.726562 354.597656 525.847656 354.09375 C 526.972656 353.585938 528.128906 353.183594 529.324219 352.890625 C 530.519531 352.59375 531.730469 352.40625 532.960938 352.332031 L 532.960938 247.953125 C 531.730469 247.875 530.519531 247.691406 529.324219 247.394531 C 528.128906 247.097656 526.972656 246.699219 525.847656 246.191406 C 524.726562 245.683594 523.660156 245.082031 522.644531 244.382812 C 521.632812 243.679688 520.691406 242.894531 519.820312 242.023438 C 518.949219 241.152344 518.164062 240.210938 517.464844 239.195312 C 516.765625 238.183594 516.164062 237.113281 515.65625 235.992188 C 515.152344 234.867188 514.75 233.707031 514.457031 232.511719 C 514.160156 231.316406 513.972656 230.101562 513.898438 228.875 L 459.484375 228.875 C 459.410156 230.101562 459.222656 231.316406 458.929688 232.511719 C 458.632812 233.707031 458.234375 234.867188 457.726562 235.992188 C 457.222656 237.113281 456.617188 238.183594 455.917969 239.195312 C 455.21875 240.210938 454.433594 241.152344 453.5625 242.023438 C 452.691406 242.894531 451.75 243.679688 450.738281 244.382812 C 449.726562 245.082031 448.65625 245.683594 447.535156 246.191406 C 446.414062 246.699219 445.253906 247.097656 444.058594 247.394531 C 442.863281 247.691406 441.652344 247.875 440.421875 247.953125 L 440.421875 352.332031 C 441.652344 352.40625 442.863281 352.59375 444.058594 352.890625 C 445.253906 353.183594 446.414062 353.585938 447.535156 354.09375 C 448.65625 354.597656 449.726562 355.203125 450.738281 355.902344 C 451.75 356.601562 452.691406 357.386719 453.5625 358.257812 C 454.433594 359.128906 455.21875 360.074219 455.917969 361.085938 C 456.617188 362.101562 457.222656 363.167969 457.726562 364.292969 C 458.234375 365.417969 458.632812 366.574219 458.929688 367.773438 C 459.222656 368.96875 459.410156 370.179688 459.484375 371.410156 Z M 459.472656 371.410156 " fill-opacity="1" fill-rule="nonzero"/><path fill="#a67d52" d="M 416.414062 408.777344 C 415.402344 408.777344 414.402344 408.675781 413.410156 408.480469 C 412.417969 408.28125 411.457031 407.988281 410.523438 407.601562 C 409.589844 407.214844 408.703125 406.742188 407.863281 406.179688 C 407.019531 405.617188 406.242188 404.980469 405.527344 404.261719 C 404.816406 403.546875 404.175781 402.769531 403.613281 401.929688 C 403.054688 401.085938 402.578125 400.199219 402.191406 399.265625 C 401.804688 398.332031 401.515625 397.367188 401.316406 396.375 C 401.121094 395.382812 401.019531 394.382812 401.019531 393.371094 L 401.019531 206.914062 C 401.019531 205.902344 401.121094 204.898438 401.316406 203.910156 C 401.515625 202.917969 401.804688 201.953125 402.191406 201.019531 C 402.578125 200.082031 403.054688 199.195312 403.613281 198.355469 C 404.175781 197.515625 404.816406 196.734375 405.527344 196.019531 C 406.242188 195.304688 407.019531 194.667969 407.863281 194.105469 C 408.703125 193.542969 409.589844 193.066406 410.523438 192.679688 C 411.457031 192.292969 412.417969 192 413.410156 191.804688 C 414.402344 191.605469 415.402344 191.507812 416.414062 191.507812 Z M 416.414062 408.777344 " fill-opacity="1" fill-rule="nonzero"/><path fill="#1a1a1a" d="M 415.195312 191.507812 L 417.632812 191.507812 L 417.632812 408.777344 L 415.195312 408.777344 Z M 415.195312 191.507812 " fill-opacity="1" fill-rule="nonzero"/><g clip-path="url(#812d2aaafd)"><path fill="#000000" d="M 543.683594 409.996094 L 416.417969 409.996094 C 415.875 409.996094 415.332031 409.96875 414.789062 409.914062 C 414.246094 409.859375 413.710938 409.78125 413.175781 409.671875 C 412.644531 409.566406 412.117188 409.433594 411.597656 409.277344 C 411.074219 409.117188 410.5625 408.933594 410.0625 408.726562 C 409.558594 408.515625 409.066406 408.285156 408.589844 408.027344 C 408.109375 407.769531 407.640625 407.492188 407.191406 407.1875 C 406.738281 406.886719 406.300781 406.5625 405.882812 406.214844 C 405.460938 405.871094 405.058594 405.503906 404.671875 405.121094 C 404.289062 404.734375 403.921875 404.332031 403.578125 403.910156 C 403.234375 403.492188 402.910156 403.054688 402.605469 402.601562 C 402.304688 402.148438 402.023438 401.683594 401.769531 401.203125 C 401.511719 400.722656 401.28125 400.230469 401.070312 399.726562 C 400.863281 399.222656 400.679688 398.710938 400.519531 398.191406 C 400.363281 397.671875 400.230469 397.144531 400.125 396.609375 C 400.019531 396.074219 399.9375 395.539062 399.882812 394.996094 C 399.832031 394.453125 399.804688 393.910156 399.800781 393.367188 L 399.800781 206.917969 C 399.804688 206.371094 399.832031 205.828125 399.882812 205.289062 C 399.9375 204.746094 400.019531 204.207031 400.125 203.675781 C 400.230469 203.140625 400.363281 202.613281 400.519531 202.09375 C 400.679688 201.570312 400.863281 201.058594 401.070312 200.554688 C 401.28125 200.054688 401.511719 199.5625 401.769531 199.082031 C 402.023438 198.601562 402.304688 198.136719 402.605469 197.683594 C 402.910156 197.230469 403.234375 196.792969 403.578125 196.371094 C 403.921875 195.953125 404.289062 195.546875 404.671875 195.164062 C 405.058594 194.777344 405.460938 194.414062 405.882812 194.066406 C 406.300781 193.722656 406.738281 193.398438 407.191406 193.097656 C 407.640625 192.792969 408.109375 192.511719 408.589844 192.257812 C 409.066406 192 409.558594 191.765625 410.0625 191.558594 C 410.5625 191.351562 411.074219 191.167969 411.597656 191.007812 C 412.117188 190.851562 412.644531 190.71875 413.175781 190.609375 C 413.710938 190.503906 414.246094 190.425781 414.789062 190.371094 C 415.332031 190.316406 415.875 190.289062 416.417969 190.289062 L 543.683594 190.289062 C 544.226562 190.289062 544.769531 190.316406 545.3125 190.371094 C 545.851562 190.425781 546.390625 190.503906 546.925781 190.613281 C 547.457031 190.71875 547.984375 190.851562 548.503906 191.007812 C 549.027344 191.167969 549.535156 191.351562 550.039062 191.558594 C 550.542969 191.769531 551.03125 192 551.511719 192.257812 C 551.992188 192.515625 552.457031 192.792969 552.910156 193.097656 C 553.363281 193.398438 553.800781 193.722656 554.21875 194.070312 C 554.640625 194.414062 555.042969 194.78125 555.425781 195.164062 C 555.8125 195.550781 556.175781 195.953125 556.523438 196.375 C 556.867188 196.792969 557.191406 197.230469 557.492188 197.683594 C 557.796875 198.136719 558.074219 198.601562 558.332031 199.082031 C 558.589844 199.5625 558.820312 200.054688 559.027344 200.558594 C 559.238281 201.058594 559.421875 201.570312 559.578125 202.09375 C 559.738281 202.613281 559.871094 203.140625 559.976562 203.675781 C 560.082031 204.207031 560.164062 204.746094 560.21875 205.289062 C 560.269531 205.828125 560.296875 206.371094 560.296875 206.917969 L 560.296875 393.367188 C 560.296875 394.292969 560.222656 395.210938 560.070312 396.125 C 559.910156 397.089844 559.667969 398.03125 559.34375 398.949219 C 559.019531 399.871094 558.617188 400.757812 558.136719 401.605469 C 557.652344 402.453125 557.101562 403.253906 556.480469 404.007812 C 555.855469 404.757812 555.171875 405.449219 554.429688 406.078125 C 553.683594 406.710938 552.890625 407.269531 552.046875 407.757812 C 551.203125 408.25 550.320312 408.660156 549.40625 408.996094 C 548.488281 409.328125 547.550781 409.582031 546.589844 409.75 C 545.628906 409.917969 544.660156 410 543.683594 409.996094 Z M 416.417969 192.726562 C 415.488281 192.730469 414.566406 192.820312 413.652344 193.003906 C 412.738281 193.183594 411.851562 193.453125 410.992188 193.8125 C 410.132812 194.167969 409.316406 194.605469 408.542969 195.125 C 407.769531 195.640625 407.054688 196.230469 406.394531 196.886719 C 405.738281 197.546875 405.148438 198.261719 404.632812 199.039062 C 404.117188 199.8125 403.679688 200.628906 403.324219 201.488281 C 402.964844 202.351562 402.695312 203.238281 402.515625 204.148438 C 402.332031 205.0625 402.238281 205.984375 402.238281 206.917969 L 402.238281 393.367188 C 402.238281 394.296875 402.332031 395.21875 402.515625 396.132812 C 402.695312 397.046875 402.964844 397.933594 403.324219 398.792969 C 403.679688 399.65625 404.117188 400.472656 404.632812 401.246094 C 405.148438 402.019531 405.738281 402.738281 406.394531 403.394531 C 407.054688 404.054688 407.769531 404.640625 408.542969 405.160156 C 409.316406 405.679688 410.132812 406.113281 410.992188 406.472656 C 411.851562 406.828125 412.738281 407.097656 413.652344 407.28125 C 414.566406 407.464844 415.488281 407.554688 416.417969 407.554688 L 543.683594 407.554688 C 544.515625 407.558594 545.34375 407.488281 546.164062 407.347656 C 546.980469 407.203125 547.785156 406.988281 548.566406 406.703125 C 549.347656 406.417969 550.097656 406.066406 550.820312 405.648438 C 551.539062 405.230469 552.214844 404.753906 552.851562 404.214844 C 553.488281 403.679688 554.070312 403.089844 554.601562 402.449219 C 555.132812 401.808594 555.605469 401.125 556.015625 400.398438 C 556.425781 399.675781 556.769531 398.917969 557.046875 398.132812 C 557.324219 397.347656 557.53125 396.546875 557.664062 395.722656 C 557.796875 394.941406 557.859375 394.15625 557.863281 393.367188 L 557.863281 206.917969 C 557.859375 205.984375 557.769531 205.0625 557.585938 204.148438 C 557.40625 203.238281 557.136719 202.351562 556.777344 201.488281 C 556.421875 200.628906 555.984375 199.8125 555.46875 199.039062 C 554.949219 198.261719 554.363281 197.546875 553.707031 196.886719 C 553.046875 196.230469 552.332031 195.640625 551.558594 195.125 C 550.785156 194.605469 549.96875 194.167969 549.109375 193.8125 C 548.246094 193.453125 547.363281 193.183594 546.449219 193.003906 C 545.535156 192.820312 544.613281 192.730469 543.683594 192.726562 Z M 416.417969 192.726562 " fill-opacity="1" fill-rule="nonzero"/></g><path fill="#fce477" d="M 511.53125 272.449219 L 491.6875 272.449219 L 491.6875 255.496094 L 481.703125 255.496094 L 481.703125 272.449219 L 461.855469 272.449219 L 461.855469 282.441406 L 481.703125 282.441406 L 481.703125 335.464844 L 491.6875 335.464844 L 491.6875 282.441406 L 511.53125 282.441406 Z M 511.53125 272.449219 " fill-opacity="1" fill-rule="nonzero"/><path fill="#000000" d="M 492.90625 336.6875 L 480.484375 336.6875 L 480.484375 283.664062 L 460.636719 283.664062 L 460.636719 271.230469 L 480.484375 271.230469 L 480.484375 254.273438 L 492.90625 254.273438 L 492.90625 271.230469 L 512.75 271.230469 L 512.75 283.664062 L 492.90625 283.664062 Z M 482.921875 334.246094 L 490.464844 334.246094 L 490.464844 281.222656 L 510.308594 281.222656 L 510.308594 273.671875 L 490.464844 273.671875 L 490.464844 256.714844 L 482.921875 256.714844 L 482.921875 273.671875 L 463.074219 273.671875 L 463.074219 281.222656 L 482.921875 281.222656 Z M 482.921875 334.246094 " fill-opacity="1" fill-rule="nonzero"/></svg>