<svg xmlns="http://www.w3.org/2000/svg" xmlns:xlink="http://www.w3.org/1999/xlink" zoomAndPan="magnify" preserveAspectRatio="xMidYMid meet" version="1.0" viewBox="419.25 232.87 134.25 134.27"><defs><clipPath id="74af11ff43"><path d="M 419.25 232.875 L 553.5 232.875 L 553.5 367.125 L 419.25 367.125 Z M 419.25 232.875 " clip-rule="nonzero"/></clipPath></defs><path fill="#90553c" d="M 461.824219 330.5625 L 455.8125 324.550781 C 453.746094 322.484375 453.746094 319.140625 455.8125 317.074219 L 503.449219 269.4375 C 505.515625 267.371094 508.859375 267.371094 510.925781 269.4375 L 516.9375 275.449219 C 519.003906 277.515625 519.003906 280.859375 516.9375 282.925781 L 469.300781 330.5625 C 467.234375 332.628906 463.890625 332.628906 461.824219 330.5625 " fill-opacity="1" fill-rule="nonzero"/><path fill="#90553c" d="M 455.8125 275.449219 L 461.824219 269.4375 C 463.890625 267.371094 467.234375 267.371094 469.300781 269.4375 L 516.9375 317.074219 C 519.003906 319.140625 519.003906 322.484375 516.9375 324.550781 L 510.925781 330.5625 C 508.859375 332.628906 505.515625 332.628906 503.449219 330.5625 L 455.8125 282.925781 C 453.746094 280.859375 453.746094 277.515625 455.8125 275.449219 " fill-opacity="1" fill-rule="nonzero"/><g clip-path="url(#74af11ff43)"><path fill="#90553c" d="M 486.375 241.089844 C 453.890625 241.089844 427.464844 267.515625 427.464844 300 C 427.464844 332.484375 453.890625 358.910156 486.375 358.910156 C 518.859375 358.910156 545.285156 332.484375 545.285156 300 C 545.285156 267.515625 518.859375 241.089844 486.375 241.089844 Z M 486.375 367.121094 C 449.363281 367.121094 419.253906 337.011719 419.253906 300 C 419.253906 262.988281 449.363281 232.878906 486.375 232.878906 C 523.386719 232.878906 553.496094 262.988281 553.496094 300 C 553.496094 337.011719 523.386719 367.121094 486.375 367.121094 " fill-opacity="1" fill-rule="nonzero"/></g></svg>